<svg xmlns="http://www.w3.org/2000/svg" width="56" height="55" viewBox="0 0 56 55" fill="none">
  <path d="M45.8905 6.73641C41.4455 2.85141 35.7022 0.370781 29.1397 0V6.59203C34.6085 6.93984 37.8306 8.67672 41.066 11.387L45.8905 6.73641Z" fill="white"/>
  <path d="M48.9869 25.3509H55.5713C55.1294 18.7884 52.5624 13.3962 48.5767 8.97748L43.9185 13.6073C46.725 16.8229 48.5713 20.9759 48.9869 25.3509Z" fill="white"/>
  <path d="M49.0175 28.6321C48.3208 39.5696 39.2591 48.2442 28.1903 48.2442C16.6677 48.2442 6.94861 38.8992 6.94861 27.3776C6.94861 16.4095 16.0147 7.43526 25.8585 6.59307V0.0010376C11.6397 0.853069 0.386108 12.8165 0.386108 27.406C0.386108 42.5468 12.8767 54.8067 28.0175 54.8067C42.7088 54.8067 54.9128 42.8509 55.6139 28.6321H49.0175Z" fill="white"/>
  <path d="M17.4477 31.571C20.0811 28.9754 21.6561 27.3941 22.1727 26.8271C22.6263 26.3231 22.935 25.9136 23.0988 25.5986C23.2752 25.271 23.3634 24.8993 23.3634 24.4835C23.3634 24.0551 23.1933 23.6897 22.8531 23.3873C22.5255 23.0723 22.0908 22.9148 21.549 22.9148C21.0324 22.9148 20.604 23.066 20.2638 23.3684C19.9362 23.6708 19.7094 24.0488 19.5834 24.5024L17.3343 23.5763C17.4729 23.0849 17.7249 22.6124 18.0903 22.1588C18.4683 21.6926 18.9534 21.3146 19.5456 21.0248C20.1378 20.735 20.8182 20.5901 21.5868 20.5901C22.4436 20.5901 23.1933 20.7602 23.8359 21.1004C24.4785 21.428 24.9762 21.8816 25.329 22.4612C25.6818 23.0282 25.8582 23.6645 25.8582 24.3701C25.8582 25.7687 25.1778 27.1358 23.817 28.4714C23.5902 28.6982 23.3382 28.9502 23.061 29.2274C22.7838 29.5046 22.494 29.7881 22.1916 30.0779L20.7363 31.5332L20.8119 31.6466H26.0472V33.8201H17.4477V31.571ZM33.2998 34.1225C32.2162 34.1225 31.2648 33.8327 30.4458 33.2531C29.6268 32.6609 28.9905 31.8545 28.5369 30.8339C28.0959 29.8007 27.8754 28.6415 27.8754 27.3563C27.8754 26.0711 28.0959 24.9182 28.5369 23.8976C28.9905 22.8644 29.6268 22.058 30.4458 21.4784C31.2648 20.8862 32.2162 20.5901 33.2998 20.5901C34.3834 20.5901 35.3346 20.8862 36.1536 21.4784C36.9726 22.058 37.6027 22.8644 38.0437 23.8976C38.4973 24.9182 38.724 26.0711 38.724 27.3563C38.724 28.6289 38.4973 29.7818 38.0437 30.815C37.6027 31.8482 36.9726 32.6609 36.1536 33.2531C35.3346 33.8327 34.3834 34.1225 33.2998 34.1225ZM33.2998 31.7978C33.892 31.7978 34.4085 31.6088 34.8495 31.2308C35.3031 30.8402 35.6433 30.311 35.8701 29.6432C36.1095 28.9628 36.2292 28.2005 36.2292 27.3563C36.2292 26.0585 35.9646 24.9938 35.4354 24.1622C34.9062 23.3306 34.1944 22.9148 33.2998 22.9148C32.3926 22.9148 31.6743 23.3306 31.1452 24.1622C30.616 24.9812 30.3513 26.0459 30.3513 27.3563C30.3513 28.2005 30.4647 28.9628 30.6915 29.6432C30.9309 30.311 31.2711 30.8402 31.7121 31.2308C32.1657 31.6088 32.695 31.7978 33.2998 31.7978Z" fill="white"/>
</svg>