<svg xmlns="http://www.w3.org/2000/svg" width="152" height="106" viewBox="0 0 152 106" fill="none">
  <path d="M15.5782 76.4742H40.6808C39.8033 78.1033 39.0601 79.9774 38.4661 82.1904L38.3873 82.1736C38.3873 82.1736 36.9729 89.455 36.9545 90.0875C36.8287 94.2266 38.3386 98.1324 41.2026 101.089C44.0682 104.041 47.9287 105.667 52.0727 105.667H99.9306C104.076 105.667 107.934 104.04 110.787 101.089C113.645 98.1307 115.139 94.2249 115 90.0825C114.992 89.8493 114.895 87.7001 113.786 83.1551L113.207 80.776C113.207 80.776 112.005 77.746 111.319 76.4759H136.422C140.568 76.4759 144.426 74.8485 147.282 71.8957C150.136 68.9411 151.632 65.032 151.491 60.8862C151.485 60.6564 151.386 58.5089 150.277 53.9622L150.263 53.9655C147.554 42.7145 141.452 39.6576 132.385 35.1579L131.12 34.5103C133.358 31.0474 134.672 26.9335 134.672 22.5127C134.672 10.2835 124.721 0.334441 112.492 0.334441C100.261 0.334441 90.3121 10.2835 90.3121 22.5127C90.3121 34.7418 100.261 44.6926 112.492 44.6926C118.498 44.6926 123.946 42.2816 127.944 38.3909L130.209 39.5469C139.22 44.0164 143.74 46.2613 145.79 56.358L145.804 56.3563C146.515 59.5424 146.596 61.049 146.596 61.054C146.693 63.8592 145.685 66.4983 143.76 68.4898C141.838 70.483 139.232 71.5802 136.423 71.5802H107.616C104.556 68.6526 100.63 66.703 95.8956 64.3541L94.6306 63.7049C96.8687 60.2437 98.1824 56.1281 98.1824 51.7072C98.1824 39.4781 88.2317 29.529 76.0025 29.529C63.7734 29.529 53.8226 39.4781 53.8226 51.7072C53.8226 56.1298 55.138 60.2403 57.3761 63.7049L56.1094 64.3541C51.3765 66.7013 47.4505 68.6526 44.3903 71.5802H15.5782C12.7714 71.5802 10.1658 70.4847 8.24142 68.4898C6.31704 66.4983 5.30871 63.8592 5.40602 61.0708C5.40602 61.0507 5.48487 59.5474 6.19792 56.3563H6.20798C8.2582 46.2596 12.7797 44.0164 21.791 39.5452L24.0542 38.3892C28.0523 42.28 33.5 44.6909 39.5047 44.6909C51.7355 44.6909 61.6863 34.7401 61.6863 22.511C61.6863 10.2818 51.7355 0.332764 39.5047 0.332764C27.2772 0.332764 17.3265 10.2818 17.3265 22.511C17.3265 26.9335 18.6418 31.0457 20.8799 34.5086L19.6132 35.1562C10.5483 39.6559 4.44466 42.7128 1.73677 53.9638L1.72167 53.9605C0.61771 58.5072 0.515366 60.6547 0.508655 60.8862C0.367724 65.0303 1.8626 68.9378 4.71814 71.894C7.57367 74.8502 11.4325 76.4742 15.5782 76.4742ZM112.492 39.7918C102.961 39.7918 95.2111 32.0406 95.2111 22.511C95.2111 12.983 102.961 5.2318 112.492 5.2318C122.02 5.2318 129.773 12.983 129.773 22.511C129.773 32.0406 122.02 39.7918 112.492 39.7918ZM75.9992 34.4264C85.5288 34.4264 93.28 42.1776 93.28 51.7056C93.28 61.2335 85.5288 68.9848 75.9992 68.9848C66.4695 68.9848 58.7183 61.2335 58.7183 51.7056C58.7183 42.1776 66.4695 34.4264 75.9992 34.4264ZM58.2821 68.7398L60.5454 67.5838C64.5451 71.4745 69.9911 73.8872 75.9992 73.8872C82.0072 73.8872 87.4532 71.4745 91.453 67.5838L93.7146 68.7398C102.726 73.2093 107.249 75.4542 109.299 85.5509H109.313C110.024 88.7336 110.105 90.2402 110.105 90.2486C110.2 93.0521 109.192 95.6929 107.269 97.6844C105.343 99.6759 102.738 100.773 99.9323 100.773H52.071C49.2642 100.773 46.6536 99.6759 44.7175 97.681C42.7847 95.6879 41.7646 93.042 41.8451 90.3157C41.8485 90.2788 41.929 89.3594 42.7008 85.5542L42.7042 85.5375C44.7544 75.4525 49.2759 73.2077 58.2821 68.7398ZM39.5047 5.2318C49.036 5.2318 56.7872 12.983 56.7872 22.511C56.7872 32.0406 49.036 39.7918 39.5047 39.7918C29.9784 39.7918 22.2255 32.0406 22.2255 22.511C22.2255 12.983 29.9784 5.2318 39.5047 5.2318Z" fill="#FFBB00"/>
</svg>