<svg width="583" height="405" viewBox="0 0 583 405" fill="none" xmlns="http://www.w3.org/2000/svg">
<circle cx="40" cy="40.9034" r="20" fill="white"/>
<path d="M73.976 36.0994C73.1733 36.0994 72.5153 35.8707 72.002 35.4134C71.4887 34.956 71.1107 34.3167 70.868 33.4954C70.6253 32.674 70.504 31.7267 70.504 30.6534C70.504 28.88 70.7887 27.5267 71.358 26.5934C71.9367 25.66 72.8187 25.1934 74.004 25.1934C74.6667 25.1934 75.222 25.3614 75.67 25.6974C76.118 26.024 76.4633 26.458 76.706 26.9994C76.958 27.5407 77.098 28.1287 77.126 28.7634L75.208 29.1694C75.1893 28.852 75.138 28.5254 75.054 28.1894C74.9793 27.8534 74.8533 27.5687 74.676 27.3354C74.4987 27.102 74.2513 26.9854 73.934 26.9854C73.486 26.9854 73.1593 27.27 72.954 27.8394C72.758 28.3994 72.66 29.3374 72.66 30.6534C72.66 31.5494 72.702 32.2634 72.786 32.7954C72.87 33.3274 73.01 33.7147 73.206 33.9574C73.402 34.1907 73.6587 34.3074 73.976 34.3074C74.284 34.3074 74.522 34.2094 74.69 34.0134C74.858 33.8174 74.9793 33.57 75.054 33.2714C75.138 32.9634 75.1893 32.6507 75.208 32.3334L77.126 32.5434C77.0887 33.15 76.9487 33.7287 76.706 34.2794C76.4727 34.8207 76.132 35.2594 75.684 35.5954C75.236 35.9314 74.6667 36.0994 73.976 36.0994ZM81.6039 36.0994C80.8013 36.0994 80.1433 35.8754 79.6299 35.4274C79.1259 34.9794 78.7573 34.3494 78.5239 33.5374C78.2906 32.716 78.1739 31.7547 78.1739 30.6534C78.1739 29.5427 78.2906 28.5814 78.5239 27.7694C78.7573 26.9574 79.1259 26.3274 79.6299 25.8794C80.1433 25.4314 80.8013 25.2074 81.6039 25.2074C82.4159 25.2074 83.0739 25.4314 83.5779 25.8794C84.0819 26.3274 84.4506 26.9574 84.6839 27.7694C84.9173 28.5814 85.0339 29.5427 85.0339 30.6534C85.0339 31.7547 84.9173 32.716 84.6839 33.5374C84.4506 34.3494 84.0819 34.9794 83.5779 35.4274C83.0739 35.8754 82.4159 36.0994 81.6039 36.0994ZM81.6039 34.3074C81.8933 34.3074 82.1219 34.2094 82.2899 34.0134C82.4673 33.8174 82.5979 33.5467 82.6819 33.2014C82.7659 32.856 82.8173 32.464 82.8359 32.0254C82.8639 31.5867 82.8779 31.1294 82.8779 30.6534C82.8779 30.1774 82.8639 29.72 82.8359 29.2814C82.8173 28.8427 82.7659 28.4507 82.6819 28.1054C82.5979 27.76 82.4673 27.4894 82.2899 27.2934C82.1219 27.0974 81.8933 26.9994 81.6039 26.9994C81.3146 26.9994 81.0859 27.0974 80.9179 27.2934C80.7499 27.4894 80.6239 27.76 80.5399 28.1054C80.4559 28.4507 80.3999 28.8427 80.3719 29.2814C80.3439 29.72 80.3299 30.1774 80.3299 30.6534C80.3299 31.1294 80.3439 31.5867 80.3719 32.0254C80.3999 32.464 80.4559 32.856 80.5399 33.2014C80.6239 33.5467 80.7499 33.8174 80.9179 34.0134C81.0859 34.2094 81.3146 34.3074 81.6039 34.3074ZM86.3713 35.9034V25.4033H88.9053C90.1559 25.4033 91.1359 25.856 91.8453 26.7614C92.5639 27.6574 92.9232 28.9547 92.9232 30.6534C92.9232 32.3427 92.5639 33.64 91.8453 34.5454C91.1359 35.4507 90.1559 35.9034 88.9053 35.9034H86.3713ZM88.4293 34.1954H88.9053C89.4839 34.1954 89.9413 33.92 90.2773 33.3694C90.6226 32.8187 90.7953 31.9134 90.7953 30.6534C90.7953 29.3934 90.6226 28.488 90.2773 27.9374C89.9413 27.3867 89.4839 27.1114 88.9053 27.1114H88.4293V34.1954ZM94.2736 35.9034V25.4033H99.8456L99.6356 27.1114H96.3316V29.6594H98.9916L98.7816 31.3394H96.3316V34.1954H99.9156L99.7196 35.9034H94.2736ZM105.952 36.1274L104.16 31.8994H103.236V35.9034H101.178V25.4033H103.81C104.949 25.4033 105.835 25.6647 106.47 26.1874C107.105 26.7007 107.422 27.5174 107.422 28.6374C107.422 29.2347 107.296 29.762 107.044 30.2194C106.801 30.6767 106.447 31.0454 105.98 31.3254L107.842 35.4414L105.952 36.1274ZM103.236 30.2614H103.712C104.16 30.2614 104.543 30.1307 104.86 29.8694C105.187 29.608 105.35 29.202 105.35 28.6514C105.35 28.0447 105.201 27.6247 104.902 27.3914C104.603 27.158 104.207 27.0414 103.712 27.0414H103.236V30.2614ZM113.183 35.9034V27.8674C112.95 27.942 112.716 27.998 112.483 28.0354C112.259 28.0727 112.012 28.1007 111.741 28.1194L111.405 26.5514C112.068 26.4487 112.595 26.3087 112.987 26.1314C113.388 25.9447 113.762 25.6647 114.107 25.2914L115.171 25.4174V35.9034H113.183Z" fill="white"/>
<path d="M72.058 56.9034V48.8674C71.8247 48.942 71.5913 48.998 71.358 49.0354C71.134 49.0727 70.8867 49.1007 70.616 49.1194L70.28 47.5514C70.9427 47.4487 71.47 47.3087 71.862 47.1314C72.2633 46.9447 72.6367 46.6647 72.982 46.2914L74.046 46.4174V56.9034H72.058ZM75.924 56.9034L75.728 55.3914C76.96 54.3274 77.8653 53.324 78.444 52.3814C79.0226 51.4294 79.312 50.4774 79.312 49.5254C79.312 48.9747 79.2326 48.5547 79.074 48.2654C78.9153 47.976 78.6866 47.8314 78.388 47.8314C78.0613 47.8314 77.8186 48.0087 77.66 48.3634C77.5106 48.718 77.436 49.2734 77.436 50.0294L75.588 49.7354C75.588 48.5967 75.8353 47.724 76.33 47.1173C76.8246 46.5107 77.5386 46.2074 78.472 46.2074C79.3866 46.2074 80.096 46.492 80.6 47.0614C81.1133 47.6307 81.37 48.4194 81.37 49.4274C81.37 50.4447 81.0853 51.4294 80.516 52.3814C79.956 53.3334 79.0926 54.29 77.926 55.2514H81.636L81.426 56.9034H75.924ZM85.5293 57.0994C84.9973 57.0994 84.5073 56.9967 84.0593 56.7914C83.6206 56.586 83.2613 56.2734 82.9813 55.8534C82.7106 55.424 82.5613 54.8874 82.5333 54.2434L84.3533 53.8794C84.3626 54.3274 84.4653 54.7054 84.6613 55.0134C84.8573 55.3214 85.1419 55.4754 85.5153 55.4754C85.8979 55.4754 86.1779 55.312 86.3553 54.9854C86.5419 54.6494 86.6353 54.1874 86.6353 53.5994C86.6353 53.0394 86.5466 52.5727 86.3693 52.1994C86.1919 51.8167 85.8886 51.6254 85.4593 51.6254C85.1979 51.6254 84.9739 51.6954 84.7873 51.8354C84.6006 51.9754 84.4419 52.1434 84.3113 52.3394L82.7433 52.0034L83.2053 46.4033H88.2453L88.0633 48.0554H84.6753L84.4513 50.7574C84.5913 50.5707 84.7966 50.4074 85.0673 50.2674C85.3379 50.1274 85.6693 50.0574 86.0613 50.0574C86.5746 50.0574 87.0226 50.1974 87.4053 50.4774C87.7973 50.748 88.1006 51.1307 88.3153 51.6254C88.5393 52.1107 88.6513 52.6707 88.6513 53.3054C88.6513 54.4814 88.3759 55.41 87.8253 56.0914C87.2839 56.7634 86.5186 57.0994 85.5293 57.0994ZM92.8523 57.0994C92.1803 57.0994 91.6343 56.9407 91.2143 56.6234C90.7943 56.2967 90.4676 55.8674 90.2343 55.3354C90.0103 54.8034 89.8516 54.22 89.7583 53.5854C89.6743 52.9414 89.6323 52.2974 89.6323 51.6534C89.6323 51 89.6743 50.3514 89.7583 49.7074C89.8516 49.0634 90.0103 48.48 90.2343 47.9574C90.4676 47.4254 90.7943 47.0007 91.2143 46.6834C91.6343 46.366 92.1803 46.2074 92.8523 46.2074C93.5243 46.2074 94.0703 46.366 94.4903 46.6834C94.9103 47.0007 95.2323 47.4254 95.4563 47.9574C95.6896 48.48 95.8483 49.0634 95.9323 49.7074C96.0256 50.3514 96.0723 51 96.0723 51.6534C96.0723 52.288 96.0256 52.9274 95.9323 53.5714C95.8483 54.2154 95.6896 54.8034 95.4563 55.3354C95.2323 55.8674 94.9103 56.2967 94.4903 56.6234C94.0703 56.9407 93.5243 57.0994 92.8523 57.0994ZM92.8523 55.4754C93.1696 55.4754 93.4076 55.312 93.5663 54.9854C93.7343 54.6494 93.8463 54.1967 93.9023 53.6274C93.9676 53.0487 94.0003 52.3907 94.0003 51.6534C94.0003 50.9254 93.9676 50.272 93.9023 49.6934C93.8463 49.1147 93.7343 48.662 93.5663 48.3354C93.4076 47.9994 93.1696 47.8314 92.8523 47.8314C92.5349 47.8314 92.2923 47.9994 92.1243 48.3354C91.9656 48.6714 91.8536 49.1287 91.7883 49.7074C91.7323 50.2767 91.7043 50.9254 91.7043 51.6534C91.7043 52.3907 91.7323 53.0487 91.7883 53.6274C91.8536 54.206 91.9656 54.6587 92.1243 54.9854C92.2923 55.312 92.5349 55.4754 92.8523 55.4754Z" fill="white"/>
<path d="M128.711 43.9034H103V58.9034H128.711V43.9034Z" fill="white"/>
<path d="M128.711 43.9034H103V48.905H128.711V43.9034Z" fill="#F0953D"/>
<path d="M128.711 53.9017H103V58.9033H128.711V53.9017Z" fill="#3D8A41"/>
<path d="M115.856 49.1511C114.615 49.1511 113.606 50.1605 113.606 51.4008C113.606 52.6412 114.615 53.6506 115.856 53.6506C117.096 53.6506 118.105 52.6412 118.105 51.4008C118.105 50.1605 117.096 49.1511 115.856 49.1511ZM115.856 49.3721L115.8 50.5019L115.861 51.1447L115.921 50.5019L115.866 49.3721C115.926 49.3721 115.981 49.3771 116.036 49.3821C116.036 49.3871 116.036 49.3871 116.036 49.3921C116.036 49.4424 116.077 49.4876 116.132 49.4876C116.177 49.4876 116.217 49.4524 116.222 49.4072C116.278 49.4172 116.333 49.4273 116.388 49.4424L116.042 50.517L115.931 51.1548L116.157 50.5471L116.393 49.4424C116.448 49.4574 116.504 49.4725 116.554 49.4926C116.549 49.5026 116.549 49.5127 116.549 49.5277C116.549 49.5779 116.589 49.6181 116.644 49.6181C116.684 49.6181 116.714 49.593 116.729 49.5629C116.78 49.588 116.83 49.6131 116.88 49.6432L116.267 50.5923L115.996 51.1799L116.373 50.6526L116.89 49.6432C116.94 49.6734 116.986 49.7035 117.031 49.7336C117.021 49.7487 117.011 49.7688 117.011 49.7889C117.011 49.8391 117.051 49.8843 117.106 49.8843C117.136 49.8843 117.161 49.8692 117.181 49.8491C117.227 49.8843 117.267 49.9244 117.307 49.9646L116.468 50.7229L116.057 51.2201L116.554 50.8083L117.312 49.9696C117.352 50.0098 117.392 50.05 117.428 50.0952C117.407 50.1102 117.392 50.1404 117.392 50.1655C117.392 50.2157 117.433 50.2609 117.488 50.2609C117.508 50.2609 117.528 50.2559 117.543 50.2408C117.573 50.286 117.608 50.3362 117.633 50.3864L116.604 50.8987L116.077 51.2753L116.664 51.0041L117.613 50.3864C117.643 50.4367 117.669 50.4919 117.694 50.5471C117.659 50.5622 117.638 50.5923 117.638 50.6325C117.638 50.6827 117.679 50.7279 117.734 50.7279C117.749 50.7279 117.759 50.7279 117.769 50.7229C117.789 50.7731 117.804 50.8233 117.819 50.8786L116.714 51.1146L116.107 51.3406L116.745 51.2301L117.819 50.8836C117.834 50.9388 117.844 50.9941 117.854 51.0493C117.809 51.0543 117.774 51.0945 117.774 51.1397C117.774 51.1899 117.814 51.2351 117.869 51.2351C117.874 51.2351 117.874 51.2351 117.879 51.2351C117.884 51.2904 117.89 51.3456 117.89 51.4059L116.76 51.3506L116.112 51.4109L116.755 51.4711L117.884 51.4159C117.884 51.4711 117.879 51.5314 117.874 51.5866C117.869 51.5866 117.869 51.5866 117.864 51.5866C117.814 51.5866 117.769 51.6268 117.769 51.6821C117.769 51.7273 117.804 51.7674 117.849 51.7725C117.839 51.8277 117.829 51.8829 117.814 51.9382L117.433 51.8126L116.74 51.5866L116.102 51.4762L116.709 51.7021L117.814 51.9382C117.799 51.9934 117.784 52.0486 117.764 52.0989C117.759 52.0989 117.754 52.0938 117.749 52.0938C117.744 52.0938 117.739 52.0938 117.729 52.0938C117.679 52.0938 117.633 52.134 117.633 52.1893C117.633 52.2043 117.633 52.2144 117.638 52.2244C117.643 52.2395 117.653 52.2495 117.664 52.2596L117.669 52.2646L117.674 52.2696L117.679 52.2746C117.653 52.3248 117.628 52.3751 117.598 52.4253L116.649 51.8126L116.062 51.5415L116.368 51.7574L116.589 51.9131L117.593 52.4253C117.563 52.4755 117.533 52.5257 117.498 52.5709C117.483 52.5609 117.463 52.5558 117.443 52.5558C117.392 52.5558 117.347 52.596 117.347 52.6513C117.347 52.6814 117.362 52.7065 117.382 52.7216C117.347 52.7668 117.307 52.8069 117.272 52.8471L116.514 52.0085L116.016 51.5967L116.428 52.0938L117.267 52.8521C117.227 52.8923 117.186 52.9275 117.146 52.9626C117.131 52.9475 117.111 52.9425 117.086 52.9425C117.036 52.9425 116.991 52.9827 116.991 53.0379C116.991 53.053 116.996 53.063 117.001 53.0781C116.95 53.1133 116.9 53.1434 116.85 53.1735L116.333 52.1692L115.956 51.6419L116.227 52.2294L116.84 53.1785C116.79 53.2087 116.74 53.2338 116.689 53.2539C116.674 53.2237 116.644 53.1986 116.604 53.1986C116.554 53.1986 116.509 53.2388 116.509 53.294C116.509 53.3041 116.509 53.3192 116.514 53.3292C116.458 53.3493 116.403 53.3643 116.348 53.3794L116.112 52.2746L115.886 51.667L115.996 52.3048L116.343 53.3794C116.288 53.3945 116.232 53.4045 116.177 53.4146C116.172 53.3694 116.132 53.3342 116.087 53.3342C116.036 53.3342 115.991 53.3744 115.991 53.4296C115.991 53.4347 115.991 53.4347 115.991 53.4397C115.936 53.4447 115.881 53.4497 115.821 53.4497L115.881 52.3198L115.821 51.677L115.76 52.3198L115.821 53.4497C115.76 53.4497 115.705 53.4447 115.645 53.4397C115.645 53.4347 115.645 53.4347 115.645 53.4296C115.645 53.3794 115.605 53.3342 115.549 53.3342C115.504 53.3342 115.464 53.3694 115.459 53.4146C115.404 53.4045 115.349 53.3945 115.298 53.3794L115.645 52.3048L115.755 51.667L115.529 52.2746L115.293 53.3794C115.238 53.3643 115.183 53.3493 115.133 53.3292C115.138 53.3192 115.138 53.3091 115.138 53.294C115.138 53.2438 115.097 53.1986 115.047 53.1986C115.007 53.1986 114.977 53.2237 114.962 53.2539C114.912 53.2288 114.861 53.2037 114.811 53.1735L115.424 52.2244L115.695 51.6369L115.318 52.1641L114.836 53.1585C114.786 53.1283 114.741 53.0982 114.691 53.0681C114.701 53.053 114.711 53.0329 114.711 53.0128C114.711 52.9626 114.671 52.9174 114.615 52.9174C114.585 52.9174 114.56 52.9325 114.545 52.9526C114.5 52.9174 114.46 52.8772 114.419 52.8421L115.258 52.0838L115.67 51.5866L115.173 51.9984L114.414 52.8371C114.374 52.7969 114.334 52.7567 114.299 52.7115C114.319 52.6965 114.334 52.6663 114.334 52.6412C114.334 52.591 114.294 52.5458 114.244 52.5458C114.224 52.5458 114.204 52.5508 114.188 52.5659C114.158 52.5207 114.123 52.4705 114.098 52.4203L115.107 51.903L115.635 51.5264L115.047 51.7976L114.098 52.4152C114.068 52.365 114.043 52.3198 114.023 52.2696C114.058 52.2545 114.083 52.2244 114.083 52.1842C114.083 52.134 114.043 52.0888 113.988 52.0888C113.973 52.0888 113.957 52.0938 113.947 52.0989C113.927 52.0436 113.912 51.9884 113.897 51.9331L115.002 51.6971L115.61 51.4711L114.972 51.5816L113.897 51.9281C113.882 51.8729 113.872 51.8176 113.862 51.7624C113.907 51.7574 113.942 51.7172 113.942 51.672C113.942 51.6218 113.902 51.5766 113.847 51.5766C113.842 51.5766 113.842 51.5766 113.837 51.5766C113.832 51.5214 113.832 51.4661 113.827 51.4059L114.957 51.4611L115.6 51.4008L114.957 51.3406L113.827 51.4008C113.827 51.3456 113.832 51.2853 113.837 51.2301C113.842 51.2301 113.847 51.2301 113.852 51.2301C113.902 51.2301 113.947 51.1899 113.947 51.1347C113.947 51.0845 113.912 51.0443 113.862 51.0393C113.872 50.984 113.882 50.9288 113.897 50.8736L114.972 51.2201L115.61 51.3305L115.002 51.1046L113.897 50.8685C113.912 50.8133 113.927 50.7581 113.947 50.7078C113.957 50.7129 113.968 50.7129 113.983 50.7129C114.033 50.7129 114.078 50.6727 114.078 50.6225C114.078 50.5823 114.053 50.5522 114.023 50.5371C114.048 50.4869 114.073 50.4367 114.103 50.3864L115.052 50.9991L115.64 51.2703L115.112 50.8936L114.098 50.3814C114.128 50.3312 114.158 50.286 114.188 50.2358C114.204 50.2458 114.224 50.2559 114.244 50.2559C114.294 50.2559 114.339 50.2157 114.339 50.1655C114.339 50.1354 114.324 50.1102 114.304 50.0902C114.339 50.045 114.379 50.0048 114.419 49.9646L115.178 50.8033L115.675 51.215L115.263 50.7179L114.425 49.9596C114.465 49.9194 114.505 49.8792 114.55 49.8441C114.565 49.8642 114.595 49.8792 114.62 49.8792C114.671 49.8792 114.711 49.8391 114.711 49.7889C114.711 49.7688 114.706 49.7487 114.696 49.7336C114.741 49.7035 114.791 49.6683 114.836 49.6432L115.354 50.6526L115.73 51.1799L115.459 50.5923L114.846 49.6432C114.897 49.6131 114.942 49.588 114.997 49.5679C115.012 49.6031 115.042 49.6282 115.082 49.6282C115.133 49.6282 115.178 49.588 115.178 49.5378C115.178 49.5227 115.173 49.5127 115.168 49.4976C115.223 49.4775 115.278 49.4624 115.333 49.4474L115.569 50.5522L115.795 51.1598L115.685 50.522L115.338 49.4474C115.394 49.4323 115.449 49.4223 115.504 49.4122C115.509 49.4574 115.549 49.4926 115.595 49.4926C115.645 49.4926 115.69 49.4524 115.69 49.3972C115.69 49.3921 115.69 49.3921 115.69 49.3871C115.74 49.372 115.795 49.3721 115.856 49.3721Z" fill="#2A2874"/>
<path d="M115.856 51.0644C116.041 51.0644 116.192 51.215 116.192 51.4008C116.192 51.5867 116.041 51.7373 115.856 51.7373C115.67 51.7373 115.519 51.5867 115.519 51.4008C115.519 51.215 115.67 51.0644 115.856 51.0644Z" fill="white"/>
<path d="M115.856 51.1397C116.001 51.1397 116.117 51.2552 116.117 51.4008C116.117 51.5465 116.001 51.662 115.856 51.662C115.71 51.662 115.595 51.5465 115.595 51.4008C115.595 51.2602 115.715 51.1397 115.856 51.1397Z" fill="#2A2874"/>
<g clip-path="url(#clip0_570_120)">
<path d="M36 98.9034C36 94.4851 32.4183 90.9034 28 90.9034C23.5817 90.9034 20 94.4851 20 98.9034C20 103.322 23.5817 106.903 28 106.903C32.4183 106.903 36 103.322 36 98.9034Z" fill="#1C2A38"/>
<path d="M158 90.9034H54C49.5817 90.9034 46 94.4851 46 98.9034C46 103.322 49.5817 106.903 54 106.903H158C162.418 106.903 166 103.322 166 98.9034C166 94.4851 162.418 90.9034 158 90.9034Z" fill="#0099B3"/>
<path d="M208 90.9034H184C179.582 90.9034 176 94.4851 176 98.9034C176 103.322 179.582 106.903 184 106.903H208C212.418 106.903 216 103.322 216 98.9034C216 94.4851 212.418 90.9034 208 90.9034Z" fill="#D9D9D9"/>
<path d="M318 90.9034H234C229.582 90.9034 226 94.4851 226 98.9034C226 103.322 229.582 106.903 234 106.903H318C322.418 106.903 326 103.322 326 98.9034C326 94.4851 322.418 90.9034 318 90.9034Z" fill="#0099B3"/>
<path d="M36 124.903C36 120.485 32.4183 116.903 28 116.903C23.5817 116.903 20 120.485 20 124.903C20 129.322 23.5817 132.903 28 132.903C32.4183 132.903 36 129.322 36 124.903Z" fill="#1C2A38"/>
<path d="M138 116.903H54C49.5817 116.903 46 120.485 46 124.903C46 129.322 49.5817 132.903 54 132.903H138C142.418 132.903 146 129.322 146 124.903C146 120.485 142.418 116.903 138 116.903Z" fill="#D9D9D9"/>
<path d="M228 116.903H164C159.582 116.903 156 120.485 156 124.903C156 129.322 159.582 132.903 164 132.903H228C232.418 132.903 236 129.322 236 124.903C236 120.485 232.418 116.903 228 116.903Z" fill="#85CF26"/>
<path d="M278 116.903H254C249.582 116.903 246 120.485 246 124.903C246 129.322 249.582 132.903 254 132.903H278C282.418 132.903 286 129.322 286 124.903C286 120.485 282.418 116.903 278 116.903Z" fill="#D9D9D9"/>
<path d="M36 150.903C36 146.485 32.4183 142.903 28 142.903C23.5817 142.903 20 146.485 20 150.903C20 155.322 23.5817 158.903 28 158.903C32.4183 158.903 36 155.322 36 150.903Z" fill="#1C2A38"/>
<path d="M98 142.903H54C49.5817 142.903 46 146.485 46 150.903C46 155.322 49.5817 158.903 54 158.903H98C102.418 158.903 106 155.322 106 150.903C106 146.485 102.418 142.903 98 142.903Z" fill="#FE0163"/>
<path d="M188 142.903H124C119.582 142.903 116 146.485 116 150.903C116 155.322 119.582 158.903 124 158.903H188C192.418 158.903 196 155.322 196 150.903C196 146.485 192.418 142.903 188 142.903Z" fill="#85CF26"/>
<path d="M348 142.903H214C209.582 142.903 206 146.485 206 150.903C206 155.322 209.582 158.903 214 158.903H348C352.418 158.903 356 155.322 356 150.903C356 146.485 352.418 142.903 348 142.903Z" fill="#D9D9D9"/>
<path d="M36 176.903C36 172.485 32.4183 168.903 28 168.903C23.5817 168.903 20 172.485 20 176.903C20 181.322 23.5817 184.903 28 184.903C32.4183 184.903 36 181.322 36 176.903Z" fill="#1C2A38"/>
<path d="M128 168.903H104C99.5817 168.903 96 172.485 96 176.903C96 181.322 99.5817 184.903 104 184.903H128C132.418 184.903 136 181.322 136 176.903C136 172.485 132.418 168.903 128 168.903Z" fill="#FE0163"/>
<path d="M258 168.903H154C149.582 168.903 146 172.485 146 176.903C146 181.322 149.582 184.903 154 184.903H258C262.418 184.903 266 181.322 266 176.903C266 172.485 262.418 168.903 258 168.903Z" fill="#D9D9D9"/>
<path d="M36 202.903C36 198.485 32.4183 194.903 28 194.903C23.5817 194.903 20 198.485 20 202.903C20 207.322 23.5817 210.903 28 210.903C32.4183 210.903 36 207.322 36 202.903Z" fill="#1C2A38"/>
<path d="M188 194.903H104C99.5817 194.903 96 198.485 96 202.903C96 207.322 99.5817 210.903 104 210.903H188C192.418 210.903 196 207.322 196 202.903C196 198.485 192.418 194.903 188 194.903Z" fill="#0099B3"/>
<path d="M228 194.903H214C209.582 194.903 206 198.485 206 202.903C206 207.322 209.582 210.903 214 210.903H228C232.418 210.903 236 207.322 236 202.903C236 198.485 232.418 194.903 228 194.903Z" fill="#FE0163"/>
<path d="M288 194.903H254C249.582 194.903 246 198.485 246 202.903C246 207.322 249.582 210.903 254 210.903H288C292.418 210.903 296 207.322 296 202.903C296 198.485 292.418 194.903 288 194.903Z" fill="#8C52FC"/>
<path d="M36 228.903C36 224.485 32.4183 220.903 28 220.903C23.5817 220.903 20 224.485 20 228.903C20 233.322 23.5817 236.903 28 236.903C32.4183 236.903 36 233.322 36 228.903Z" fill="#1C2A38"/>
<path d="M98 220.903H54C49.5817 220.903 46 224.485 46 228.903C46 233.322 49.5817 236.903 54 236.903H98C102.418 236.903 106 233.322 106 228.903C106 224.485 102.418 220.903 98 220.903Z" fill="#FE0163"/>
<path d="M188 220.903H124C119.582 220.903 116 224.485 116 228.903C116 233.322 119.582 236.903 124 236.903H188C192.418 236.903 196 233.322 196 228.903C196 224.485 192.418 220.903 188 220.903Z" fill="#85CF26"/>
<path d="M348 220.903H214C209.582 220.903 206 224.485 206 228.903C206 233.322 209.582 236.903 214 236.903H348C352.418 236.903 356 233.322 356 228.903C356 224.485 352.418 220.903 348 220.903Z" fill="#D9D9D9"/>
<path d="M36 254.903C36 250.485 32.4183 246.903 28 246.903C23.5817 246.903 20 250.485 20 254.903C20 259.322 23.5817 262.903 28 262.903C32.4183 262.903 36 259.322 36 254.903Z" fill="#1C2A38"/>
<path d="M188 246.903H104C99.5817 246.903 96 250.485 96 254.903C96 259.322 99.5817 262.903 104 262.903H188C192.418 262.903 196 259.322 196 254.903C196 250.485 192.418 246.903 188 246.903Z" fill="#8C52FC"/>
<path d="M248 246.903H214C209.582 246.903 206 250.485 206 254.903C206 259.322 209.582 262.903 214 262.903H248C252.418 262.903 256 259.322 256 254.903C256 250.485 252.418 246.903 248 246.903Z" fill="#D9D9D9"/>
<path d="M288 246.903H274C269.582 246.903 266 250.485 266 254.903C266 259.322 269.582 262.903 274 262.903H288C292.418 262.903 296 259.322 296 254.903C296 250.485 292.418 246.903 288 246.903Z" fill="#85CF26"/>
<path d="M36 280.903C36 276.485 32.4183 272.903 28 272.903C23.5817 272.903 20 276.485 20 280.903C20 285.322 23.5817 288.903 28 288.903C32.4183 288.903 36 285.322 36 280.903Z" fill="#1C2A38"/>
<path d="M188 272.903H104C99.5817 272.903 96 276.485 96 280.903C96 285.322 99.5817 288.903 104 288.903H188C192.418 288.903 196 285.322 196 280.903C196 276.485 192.418 272.903 188 272.903Z" fill="#0099B3"/>
<path d="M228 272.903H214C209.582 272.903 206 276.485 206 280.903C206 285.322 209.582 288.903 214 288.903H228C232.418 288.903 236 285.322 236 280.903C236 276.485 232.418 272.903 228 272.903Z" fill="#FE0163"/>
<path d="M288 272.903H254C249.582 272.903 246 276.485 246 280.903C246 285.322 249.582 288.903 254 288.903H288C292.418 288.903 296 285.322 296 280.903C296 276.485 292.418 272.903 288 272.903Z" fill="#8C52FC"/>
<path d="M36 306.903C36 302.485 32.4183 298.903 28 298.903C23.5817 298.903 20 302.485 20 306.903C20 311.322 23.5817 314.903 28 314.903C32.4183 314.903 36 311.322 36 306.903Z" fill="#1C2A38"/>
<path d="M78 298.903H54C49.5817 298.903 46 302.485 46 306.903C46 311.322 49.5817 314.903 54 314.903H78C82.4183 314.903 86 311.322 86 306.903C86 302.485 82.4183 298.903 78 298.903Z" fill="#FE0163"/>
<path d="M228 298.903H104C99.5817 298.903 96 302.485 96 306.903C96 311.322 99.5817 314.903 104 314.903H228C232.418 314.903 236 311.322 236 306.903C236 302.485 232.418 298.903 228 298.903Z" fill="#FFB800"/>
<path d="M298 298.903H254C249.582 298.903 246 302.485 246 306.903C246 311.322 249.582 314.903 254 314.903H298C302.418 314.903 306 311.322 306 306.903C306 302.485 302.418 298.903 298 298.903Z" fill="#85CF26"/>
</g>
<circle cx="40" cy="364.903" r="20" fill="white"/>
<path d="M73.976 360.099C73.1733 360.099 72.5153 359.871 72.002 359.413C71.4887 358.956 71.1107 358.317 70.868 357.495C70.6253 356.674 70.504 355.727 70.504 354.653C70.504 352.88 70.7887 351.527 71.358 350.593C71.9367 349.66 72.8187 349.193 74.004 349.193C74.6667 349.193 75.222 349.361 75.67 349.697C76.118 350.024 76.4633 350.458 76.706 350.999C76.958 351.541 77.098 352.129 77.126 352.763L75.208 353.169C75.1893 352.852 75.138 352.525 75.054 352.189C74.9793 351.853 74.8533 351.569 74.676 351.335C74.4987 351.102 74.2513 350.985 73.934 350.985C73.486 350.985 73.1593 351.27 72.954 351.839C72.758 352.399 72.66 353.337 72.66 354.653C72.66 355.549 72.702 356.263 72.786 356.795C72.87 357.327 73.01 357.715 73.206 357.957C73.402 358.191 73.6587 358.307 73.976 358.307C74.284 358.307 74.522 358.209 74.69 358.013C74.858 357.817 74.9793 357.57 75.054 357.271C75.138 356.963 75.1893 356.651 75.208 356.333L77.126 356.543C77.0887 357.15 76.9487 357.729 76.706 358.279C76.4727 358.821 76.132 359.259 75.684 359.595C75.236 359.931 74.6667 360.099 73.976 360.099ZM81.6039 360.099C80.8013 360.099 80.1433 359.875 79.6299 359.427C79.1259 358.979 78.7573 358.349 78.5239 357.537C78.2906 356.716 78.1739 355.755 78.1739 354.653C78.1739 353.543 78.2906 352.581 78.5239 351.769C78.7573 350.957 79.1259 350.327 79.6299 349.879C80.1433 349.431 80.8013 349.207 81.6039 349.207C82.4159 349.207 83.0739 349.431 83.5779 349.879C84.0819 350.327 84.4506 350.957 84.6839 351.769C84.9173 352.581 85.0339 353.543 85.0339 354.653C85.0339 355.755 84.9173 356.716 84.6839 357.537C84.4506 358.349 84.0819 358.979 83.5779 359.427C83.0739 359.875 82.4159 360.099 81.6039 360.099ZM81.6039 358.307C81.8933 358.307 82.1219 358.209 82.2899 358.013C82.4673 357.817 82.5979 357.547 82.6819 357.201C82.7659 356.856 82.8173 356.464 82.8359 356.025C82.8639 355.587 82.8779 355.129 82.8779 354.653C82.8779 354.177 82.8639 353.72 82.8359 353.281C82.8173 352.843 82.7659 352.451 82.6819 352.105C82.5979 351.76 82.4673 351.489 82.2899 351.293C82.1219 351.097 81.8933 350.999 81.6039 350.999C81.3146 350.999 81.0859 351.097 80.9179 351.293C80.7499 351.489 80.6239 351.76 80.5399 352.105C80.4559 352.451 80.3999 352.843 80.3719 353.281C80.3439 353.72 80.3299 354.177 80.3299 354.653C80.3299 355.129 80.3439 355.587 80.3719 356.025C80.3999 356.464 80.4559 356.856 80.5399 357.201C80.6239 357.547 80.7499 357.817 80.9179 358.013C81.0859 358.209 81.3146 358.307 81.6039 358.307ZM86.3713 359.903V349.403H88.9053C90.1559 349.403 91.1359 349.856 91.8453 350.761C92.5639 351.657 92.9232 352.955 92.9232 354.653C92.9232 356.343 92.5639 357.64 91.8453 358.545C91.1359 359.451 90.1559 359.903 88.9053 359.903H86.3713ZM88.4293 358.195H88.9053C89.4839 358.195 89.9413 357.92 90.2773 357.369C90.6226 356.819 90.7953 355.913 90.7953 354.653C90.7953 353.393 90.6226 352.488 90.2773 351.937C89.9413 351.387 89.4839 351.111 88.9053 351.111H88.4293V358.195ZM94.2736 359.903V349.403H99.8456L99.6356 351.111H96.3316V353.659H98.9916L98.7816 355.339H96.3316V358.195H99.9156L99.7196 359.903H94.2736ZM105.952 360.127L104.16 355.899H103.236V359.903H101.178V349.403H103.81C104.949 349.403 105.835 349.665 106.47 350.187C107.105 350.701 107.422 351.517 107.422 352.637C107.422 353.235 107.296 353.762 107.044 354.219C106.801 354.677 106.447 355.045 105.98 355.325L107.842 359.441L105.952 360.127ZM103.236 354.261H103.712C104.16 354.261 104.543 354.131 104.86 353.869C105.187 353.608 105.35 353.202 105.35 352.651C105.35 352.045 105.201 351.625 104.902 351.391C104.603 351.158 104.207 351.041 103.712 351.041H103.236V354.261ZM111.881 359.903L111.685 358.391C112.917 357.327 113.822 356.324 114.401 355.381C114.98 354.429 115.269 353.477 115.269 352.525C115.269 351.975 115.19 351.555 115.031 351.265C114.872 350.976 114.644 350.831 114.345 350.831C114.018 350.831 113.776 351.009 113.617 351.363C113.468 351.718 113.393 352.273 113.393 353.029L111.545 352.735C111.545 351.597 111.792 350.724 112.287 350.117C112.782 349.511 113.496 349.207 114.429 349.207C115.344 349.207 116.053 349.492 116.557 350.061C117.07 350.631 117.327 351.419 117.327 352.427C117.327 353.445 117.042 354.429 116.473 355.381C115.913 356.333 115.05 357.29 113.883 358.251H117.593L117.383 359.903H111.881Z" fill="white"/>
<path d="M72.058 380.903V372.867C71.8247 372.942 71.5913 372.998 71.358 373.035C71.134 373.073 70.8867 373.101 70.616 373.119L70.28 371.551C70.9427 371.449 71.47 371.309 71.862 371.131C72.2633 370.945 72.6367 370.665 72.982 370.291L74.046 370.417V380.903H72.058ZM75.924 380.903L75.728 379.391C76.96 378.327 77.8653 377.324 78.444 376.381C79.0226 375.429 79.312 374.477 79.312 373.525C79.312 372.975 79.2326 372.555 79.074 372.265C78.9153 371.976 78.6866 371.831 78.388 371.831C78.0613 371.831 77.8186 372.009 77.66 372.363C77.5106 372.718 77.436 373.273 77.436 374.029L75.588 373.735C75.588 372.597 75.8353 371.724 76.33 371.117C76.8246 370.511 77.5386 370.207 78.472 370.207C79.3866 370.207 80.096 370.492 80.6 371.061C81.1133 371.631 81.37 372.419 81.37 373.427C81.37 374.445 81.0853 375.429 80.516 376.381C79.956 377.333 79.0926 378.29 77.926 379.251H81.636L81.426 380.903H75.924ZM85.8933 381.099C85.2213 381.099 84.6753 380.941 84.2553 380.623C83.8353 380.297 83.5086 379.867 83.2753 379.335C83.0513 378.803 82.8926 378.22 82.7993 377.585C82.7153 376.941 82.6733 376.297 82.6733 375.653C82.6733 375 82.7153 374.351 82.7993 373.707C82.8926 373.063 83.0513 372.48 83.2753 371.957C83.5086 371.425 83.8353 371.001 84.2553 370.683C84.6753 370.366 85.2213 370.207 85.8933 370.207C86.5653 370.207 87.1113 370.366 87.5313 370.683C87.9513 371.001 88.2733 371.425 88.4973 371.957C88.7306 372.48 88.8893 373.063 88.9733 373.707C89.0666 374.351 89.1133 375 89.1133 375.653C89.1133 376.288 89.0666 376.927 88.9733 377.571C88.8893 378.215 88.7306 378.803 88.4973 379.335C88.2733 379.867 87.9513 380.297 87.5313 380.623C87.1113 380.941 86.5653 381.099 85.8933 381.099ZM85.8933 379.475C86.2106 379.475 86.4486 379.312 86.6073 378.985C86.7753 378.649 86.8873 378.197 86.9433 377.627C87.0086 377.049 87.0413 376.391 87.0413 375.653C87.0413 374.925 87.0086 374.272 86.9433 373.693C86.8873 373.115 86.7753 372.662 86.6073 372.335C86.4486 371.999 86.2106 371.831 85.8933 371.831C85.5759 371.831 85.3333 371.999 85.1653 372.335C85.0066 372.671 84.8946 373.129 84.8293 373.707C84.7733 374.277 84.7453 374.925 84.7453 375.653C84.7453 376.391 84.7733 377.049 84.8293 377.627C84.8946 378.206 85.0066 378.659 85.1653 378.985C85.3333 379.312 85.5759 379.475 85.8933 379.475ZM93.4538 381.099C92.7818 381.099 92.2358 380.941 91.8158 380.623C91.3958 380.297 91.0692 379.867 90.8358 379.335C90.6118 378.803 90.4532 378.22 90.3598 377.585C90.2758 376.941 90.2338 376.297 90.2338 375.653C90.2338 375 90.2758 374.351 90.3598 373.707C90.4532 373.063 90.6118 372.48 90.8358 371.957C91.0692 371.425 91.3958 371.001 91.8158 370.683C92.2358 370.366 92.7818 370.207 93.4538 370.207C94.1258 370.207 94.6718 370.366 95.0918 370.683C95.5118 371.001 95.8338 371.425 96.0578 371.957C96.2912 372.48 96.4498 373.063 96.5338 373.707C96.6272 374.351 96.6738 375 96.6738 375.653C96.6738 376.288 96.6272 376.927 96.5338 377.571C96.4498 378.215 96.2912 378.803 96.0578 379.335C95.8338 379.867 95.5118 380.297 95.0918 380.623C94.6718 380.941 94.1258 381.099 93.4538 381.099ZM93.4538 379.475C93.7712 379.475 94.0092 379.312 94.1678 378.985C94.3358 378.649 94.4478 378.197 94.5038 377.627C94.5692 377.049 94.6018 376.391 94.6018 375.653C94.6018 374.925 94.5692 374.272 94.5038 373.693C94.4478 373.115 94.3358 372.662 94.1678 372.335C94.0092 371.999 93.7712 371.831 93.4538 371.831C93.1365 371.831 92.8938 371.999 92.7258 372.335C92.5672 372.671 92.4552 373.129 92.3898 373.707C92.3338 374.277 92.3058 374.925 92.3058 375.653C92.3058 376.391 92.3338 377.049 92.3898 377.627C92.4552 378.206 92.5672 378.659 92.7258 378.985C92.8938 379.312 93.1365 379.475 93.4538 379.475Z" fill="white"/>
<path d="M104 367.912H129.916V382.895H104V367.912Z" fill="white"/>
<path d="M104 367.912H129.916V369.064H104V367.912ZM104 370.217H129.916V371.369H104V370.217ZM104 372.522H129.916V373.674H104V372.522ZM104 374.827H129.916V375.979H104V374.827ZM104 377.132H129.916V378.284H104V377.132ZM104 379.436H129.916V380.589H104V379.436ZM104 381.741H129.916V382.894H104V381.741Z" fill="#DC1F2B"/>
<path d="M104 367.912H115.46V376.011H104V367.912Z" fill="white"/>
<path d="M104 367.912V376.011H115.456V367.912H104ZM105.255 375.505L104.98 375.306L104.709 375.505L104.81 375.201L104.535 375.002H104.875L104.911 374.885L104.976 374.683L105.041 374.885L105.081 375.002H105.417L105.154 375.201L105.255 375.505ZM105.154 373.581L105.195 373.711L105.259 373.901L104.992 373.711L104.729 373.901L104.79 373.711L104.81 373.581L104.535 373.383H104.875L104.976 373.063L105.081 373.383H105.417L105.154 373.581ZM105.154 371.994L105.259 372.314L104.984 372.115L104.713 372.314L104.81 371.99L104.535 371.791H104.875L104.976 371.471L105.081 371.791H105.417L105.154 371.994ZM105.381 370.232L105.154 370.398L105.259 370.718L104.984 370.524L104.713 370.718L104.81 370.394L104.579 370.228L104.535 370.196H104.875L104.976 369.876L105.081 370.196H105.417L105.381 370.232ZM105.154 368.775L105.251 369.074V369.094L105.215 369.07L104.968 368.892L104.721 369.07L104.697 369.09V369.07L104.81 368.771L104.535 368.572H104.875L104.976 368.248L105.081 368.572H105.417L105.154 368.775ZM106.207 374.695L105.936 374.496L105.66 374.695L105.766 374.391L105.494 374.193H105.83L105.936 373.869L106.037 374.193H106.377L106.102 374.391L106.207 374.695ZM106.102 372.771L106.207 373.091L105.936 372.897L105.66 373.091L105.766 372.771L105.494 372.573H105.83L105.932 372.269L106.029 372.573H106.369L106.102 372.771ZM106.102 371.184L106.17 371.394L106.207 371.504L106.057 371.394L105.936 371.305L105.81 371.394L105.66 371.504L105.697 371.394L105.766 371.184L105.494 370.985H105.83L105.936 370.666L106.025 370.977H106.365L106.102 371.184ZM106.102 369.588L106.207 369.912L105.936 369.714L105.66 369.912L105.766 369.588L105.494 369.39H105.83L105.932 369.078L106.025 369.382H106.365L106.102 369.588ZM107.154 375.513L106.883 375.314L106.612 375.513L106.713 375.201L106.43 374.982H106.766L106.806 374.865L106.871 374.662L106.936 374.865L106.976 374.982H107.312L107.053 375.201L107.154 375.513ZM107.053 373.581L107.094 373.711L107.154 373.901L106.891 373.711L106.628 373.901L106.689 373.711L106.713 373.581L106.43 373.379H106.766L106.871 373.059L106.976 373.379H107.312L107.053 373.581ZM107.053 371.994L107.154 372.314L106.883 372.115L106.612 372.314L106.713 371.994L106.43 371.791H106.766L106.871 371.471L106.976 371.791H107.312L107.053 371.994ZM107.28 370.228L107.053 370.394L107.154 370.714L106.883 370.52L106.612 370.714L106.713 370.394L106.486 370.228L106.43 370.196H106.766L106.871 369.876L106.976 370.196H107.312L107.28 370.228ZM107.053 368.771L107.15 369.07V369.09L107.126 369.07L106.879 368.892L106.632 369.07L106.608 369.09V369.07L106.705 368.771L106.43 368.572H106.766L106.871 368.248L106.976 368.572H107.312L107.053 368.771ZM108.106 374.691L107.831 374.492L107.559 374.691L107.665 374.391L107.389 374.193H107.729L107.831 373.869L107.936 374.193H108.272L108.001 374.391L108.106 374.691ZM108.001 372.771L108.106 373.091L107.831 372.897L107.559 373.091L107.665 372.771L107.389 372.573H107.729L107.827 372.269L107.924 372.573H108.26L108.001 372.771ZM108.001 371.184L108.07 371.394L108.106 371.504L107.956 371.394L107.831 371.305L107.709 371.394L107.559 371.504L107.596 371.394L107.665 371.184L107.389 370.985H107.729L107.831 370.666L107.936 370.985H108.272L108.001 371.184ZM108.001 369.588L108.106 369.912L107.831 369.714L107.559 369.912L107.665 369.588L107.389 369.39H107.729L107.831 369.078L107.932 369.39H108.268L108.001 369.588ZM109.054 375.513L108.782 375.314L108.507 375.513L108.612 375.189L108.341 374.99H108.677L108.717 374.873L108.782 374.67L108.847 374.873L108.883 374.99H109.224L108.948 375.189L109.054 375.513ZM108.948 373.581L108.993 373.711L109.054 373.901L108.79 373.711L108.523 373.901L108.588 373.711L108.628 373.581L108.357 373.383H108.693L108.798 373.063L108.9 373.383H109.24L108.948 373.581ZM108.948 371.994L109.054 372.314L108.782 372.115L108.507 372.314L108.612 371.994L108.341 371.795H108.677L108.782 371.475L108.883 371.795H109.224L108.948 371.994ZM109.179 370.232L108.948 370.398L109.054 370.718L108.782 370.524L108.507 370.718L108.612 370.398L108.385 370.232L108.341 370.2H108.677L108.782 369.88L108.883 370.2H109.224L109.179 370.232ZM108.948 368.775L109.049 369.074V369.094L109.025 369.074L108.778 368.896L108.531 369.074L108.503 369.094V369.074L108.6 368.775L108.329 368.576H108.665L108.77 368.252L108.871 368.576H109.212L108.948 368.775ZM110.001 374.695L109.73 374.496L109.458 374.695L109.56 374.375L109.288 374.176H109.624L109.73 373.852L109.835 374.176H110.171L109.9 374.375L110.001 374.695ZM109.9 372.771L110.001 373.091L109.73 372.897L109.458 373.091L109.56 372.771L109.288 372.573H109.624L109.722 372.269L109.819 372.573H110.155L109.9 372.771ZM109.9 371.184L109.969 371.394L110.001 371.504L109.855 371.394L109.73 371.305L109.604 371.394L109.458 371.504L109.491 371.394L109.56 371.184L109.288 370.985H109.624L109.73 370.666L109.835 370.985H110.171L109.9 371.184ZM109.9 369.588L110.001 369.912L109.73 369.714L109.458 369.912L109.56 369.588L109.288 369.39H109.624L109.726 369.078L109.827 369.39H110.163L109.9 369.588ZM110.953 375.513L110.677 375.314L110.406 375.513L110.511 375.189L110.236 374.99H110.576L110.613 374.873L110.677 374.67L110.746 374.873L110.783 374.99H111.119L110.847 375.189L110.953 375.513ZM110.847 373.581L110.888 373.711L110.953 373.901L110.685 373.711L110.418 373.901L110.479 373.711L110.523 373.581L110.248 373.383H110.588L110.689 373.063L110.795 373.383H111.131L110.847 373.581ZM110.847 371.994L110.953 372.314L110.677 372.115L110.406 372.314L110.511 371.994L110.236 371.795H110.576L110.677 371.475L110.783 371.795H111.119L110.847 371.994ZM111.074 370.232L110.847 370.398L110.953 370.718L110.677 370.524L110.406 370.718L110.511 370.398L110.281 370.232L110.236 370.2H110.576L110.677 369.88L110.783 370.2H111.119L111.074 370.232ZM110.847 368.775L110.945 369.074V369.094L110.916 369.074L110.669 368.896L110.422 369.074L110.398 369.094V369.074L110.495 368.775L110.22 368.576H110.56L110.661 368.252L110.766 368.576H111.103L110.847 368.775ZM111.9 374.695L111.629 374.496L111.354 374.695L111.459 374.375L111.188 374.176H111.524L111.629 373.852L111.73 374.176H112.07L111.795 374.375L111.9 374.695ZM111.795 372.771L111.9 373.091L111.629 372.897L111.354 373.091L111.459 372.771L111.188 372.573H111.524L111.621 372.269L111.718 372.573H112.058L111.795 372.771ZM111.795 371.184L111.864 371.394L111.9 371.504L111.75 371.394L111.629 371.305L111.503 371.394L111.354 371.504L111.39 371.394L111.459 371.184L111.188 370.985H111.524L111.629 370.666L111.73 370.985H112.07L111.795 371.184ZM111.795 369.588L111.9 369.912L111.629 369.714L111.354 369.912L111.459 369.588L111.188 369.39H111.524L111.625 369.078L111.726 369.39H112.066L111.795 369.588ZM112.848 375.513L112.576 375.314L112.305 375.513L112.406 375.189L112.135 374.99H112.471L112.512 374.873L112.576 374.67L112.641 374.873L112.682 374.99H113.018L112.747 375.201L112.848 375.513ZM112.747 373.581L112.787 373.711L112.848 373.901L112.585 373.711L112.321 373.901L112.382 373.711L112.423 373.581L112.151 373.383H112.487L112.593 373.063L112.698 373.383H113.034L112.747 373.581ZM112.747 371.994L112.848 372.314L112.576 372.115L112.305 372.314L112.406 371.994L112.135 371.795H112.471L112.576 371.475L112.682 371.795H113.018L112.747 371.994ZM112.973 370.232L112.747 370.398L112.848 370.718L112.576 370.524L112.305 370.718L112.406 370.398L112.18 370.232L112.135 370.2H112.471L112.576 369.88L112.682 370.2H113.018L112.973 370.232ZM112.747 368.775L112.844 369.074V369.094L112.819 369.074L112.572 368.896L112.325 369.074L112.301 369.094V369.07L112.398 368.771L112.127 368.572H112.463L112.568 368.248L112.674 368.572H113.01L112.747 368.775ZM113.799 374.695L113.524 374.496L113.253 374.695L113.358 374.375L113.083 374.176H113.423L113.524 373.852L113.629 374.176H113.965L113.694 374.375L113.799 374.695ZM113.694 372.771L113.799 373.091L113.524 372.897L113.253 373.091L113.358 372.771L113.083 372.573H113.423L113.52 372.269L113.621 372.573H113.957L113.694 372.771ZM113.694 371.184L113.763 371.394L113.799 371.504L113.65 371.394L113.524 371.305L113.403 371.394L113.253 371.504L113.289 371.394L113.358 371.184L113.083 370.985H113.423L113.524 370.666L113.629 370.985H113.965L113.694 371.184ZM113.694 369.588L113.799 369.912L113.524 369.714L113.253 369.912L113.358 369.588L113.083 369.39H113.423L113.524 369.078L113.625 369.39H113.961L113.694 369.588ZM114.747 375.513L114.476 375.314L114.2 375.513L114.306 375.189L114.034 374.99H114.37L114.411 374.873L114.476 374.67L114.54 374.873L114.577 374.99H114.933L114.658 375.189L114.747 375.513ZM114.642 373.581L114.686 373.711L114.747 373.901L114.484 373.711L114.216 373.901L114.281 373.711L114.322 373.581L114.05 373.383H114.387L114.492 373.063L114.593 373.383H114.933L114.642 373.581ZM114.642 371.994L114.747 372.314L114.476 372.115L114.2 372.314L114.306 371.994L114.034 371.795H114.37L114.476 371.475L114.577 371.795H114.933L114.642 371.994ZM114.872 370.232L114.642 370.398L114.747 370.718L114.476 370.524L114.2 370.718L114.306 370.398L114.079 370.232L114.034 370.2H114.37L114.476 369.88L114.577 370.2H114.933L114.872 370.232ZM114.642 368.775L114.743 369.074V369.094L114.719 369.074L114.472 368.896L114.225 369.074L114.196 369.094V369.074L114.293 368.775L114.022 368.576H114.358L114.463 368.252L114.565 368.576H114.933L114.642 368.775Z" fill="#1B304F"/>
<defs>
<clipPath id="clip0_570_120">
<rect width="336" height="224" fill="white" transform="translate(20 90.9034)"/>
</clipPath>
</defs>
</svg>
