<svg width="24" height="24" viewBox="0 0 24 24" fill="none" xmlns="http://www.w3.org/2000/svg">
<path fill-rule="evenodd" clip-rule="evenodd" d="M12 5.25C7.52775 5.25 3.75 7.6545 3.75 10.5C3.75 10.707 3.918 10.875 4.125 10.875C4.332 10.875 4.5 10.707 4.5 10.5C4.5 8.103 8.00475 6 12 6C12.2063 6 12.375 5.832 12.375 5.625C12.375 5.418 12.207 5.25 12 5.25Z" fill="white"/>
<path fill-rule="evenodd" clip-rule="evenodd" d="M12 1.5C5.37225 1.5 0 5.52975 0 10.5C0 13.5952 2.08425 16.3245 5.256 17.9445C5.256 17.9648 5.25 17.9783 5.25 18C5.25 19.3447 4.24575 20.7923 3.804 21.552H3.8055C3.77025 21.6345 3.75 21.7252 3.75 21.8205C3.75 22.1955 4.05375 22.5 4.4295 22.5C4.5 22.5 4.62375 22.4813 4.62075 22.4895C6.9645 22.1055 9.1725 19.9522 9.6855 19.3282C10.4347 19.4385 11.2072 19.5 12 19.5C18.6263 19.5 24 15.4702 24 10.5C24 5.52975 18.627 1.5 12 1.5ZM12 18C11.3123 18 10.6065 17.9475 9.903 17.8447C9.83025 17.8327 9.7575 17.829 9.6855 17.829C9.24 17.829 8.81325 18.027 8.526 18.3765C8.205 18.7673 7.2915 19.6395 6.21225 20.2808C6.50475 19.6095 6.7335 18.8572 6.74925 18.0817C6.75375 18.0337 6.756 17.985 6.756 17.9437C6.756 17.3797 6.44025 16.8645 5.9385 16.608C3.159 15.189 1.5 12.9053 1.5 10.5C1.5 6.3645 6.21 3 12 3C17.7885 3 22.5 6.3645 22.5 10.5C22.5 14.6355 17.7892 18 12 18Z" fill="white"/>
</svg>
