<svg width="24" height="24" viewBox="0 0 24 24" fill="none" xmlns="http://www.w3.org/2000/svg">
<g clip-path="url(#clip0_1229_65)">
<path d="M15 9C12.8 9 11 10.8 11 13C11 15.2 12.8 17 15 17C17.2 17 19 15.2 19 13C19 10.8 17.2 9 15 9ZM15 15C13.9 15 13 14.1 13 13C13 11.9 13.9 11 15 11C16.1 11 17 11.9 17 13C17 14.1 16.1 15 15 15ZM13 0C6.9 0 2 4.9 2 11C2 11.8 2.1 12.6 2.3 13.4L2.4 13.7L10.4 21.7L10.7 21.8C11.5 22 12.3 22.1 13.1 22.1C19.2 22.1 24.1 17.2 24.1 11.1C24.1 5 19.1 0 13 0ZM13 20C12.5 20 11.9 19.9 11.4 19.8L4.2 12.6C4.1 12.1 4 11.5 4 11C4 6 8 2 13 2C18 2 22 6 22 11C22 16 18 20 13 20ZM4 21.4C3.5 21 3 20.5 2.6 20L4.5 18.1L3.1 16.7L0 19.8L0.4 20.5C1.2 21.7 2.3 22.8 3.5 23.6L4.2 24L7.3 20.9L5.9 19.5L4 21.4Z" fill="white"/>
</g>
<defs>
<clipPath id="clip0_1229_65">
<rect width="24" height="24" fill="white"/>
</clipPath>
</defs>
</svg>
