<svg width="60" height="59" viewBox="0 0 60 59" fill="none" xmlns="http://www.w3.org/2000/svg">
<path d="M32.766 0.115723C17.7996 0.115723 5.77739 12.1379 5.77739 27.1044C5.77739 29.0672 6.02274 31.03 6.51344 32.9928L6.75879 33.7288L26.3869 53.3569L27.1229 53.6023C29.0857 54.093 31.0486 54.3383 33.0114 54.3383C47.9778 54.3383 60 42.3161 60 27.3497C60 12.3833 47.7324 0.115723 32.766 0.115723ZM32.766 49.186C31.5393 49.186 30.0672 48.9406 28.8404 48.6953L11.1751 31.03C10.9298 29.8032 10.6844 28.3311 10.6844 27.1044C10.6844 14.8368 20.4985 5.02275 32.766 5.02275C45.0336 5.02275 54.8476 14.8368 54.8476 27.1044C54.8476 39.3719 45.0336 49.186 32.766 49.186ZM10.6844 52.6209C9.45765 51.6395 8.2309 50.4127 7.24949 49.186L11.9112 44.5243L8.47625 41.0894L0.870361 48.6953L1.85177 50.4127C3.81458 53.3569 6.51344 56.0558 9.45765 58.0186L11.1751 59L18.781 51.3941L15.3461 47.9592L10.6844 52.6209Z" fill="white"/>
<ellipse cx="33.0841" cy="25.8777" rx="24.5351" ry="23.3084" fill="white"/>
</svg>
