<svg width="321" height="59" viewBox="0 0 321 59" fill="none" xmlns="http://www.w3.org/2000/svg">
<path d="M35.497 42.8167C31.1396 45.0643 26.5986 46.188 21.8743 46.188C15.2234 46.188 9.85686 44.0552 5.77461 39.7894C1.96758 35.7531 0.0640564 30.7764 0.0640564 24.8594C0.0640564 19.8598 1.5089 15.4336 4.39857 11.5807C8.48082 6.21413 14.3748 3.53085 22.0807 3.53085C26.8968 3.53085 31.3001 4.60875 35.2906 6.76454C35.2448 6.03065 35.2677 5.43437 35.3594 4.97569C35.5888 4.24181 36.2997 3.87486 37.4923 3.87486L37.6987 17.4288H35.2906C34.5567 14.7685 33.7082 12.5898 32.7449 10.8927C30.6809 7.36082 27.4931 5.59491 23.1815 5.59491C15.017 5.64078 10.9118 11.9476 10.866 24.5154C10.866 28.3683 11.1412 31.602 11.6916 34.2165C13.1593 40.8215 16.8058 44.124 22.6311 44.124C24.0988 44.124 25.429 43.9634 26.6216 43.6423C30.9332 42.4498 33.9375 38.6657 35.6346 32.29H37.9051V45.844C37.4005 45.844 36.9877 45.7981 36.6667 45.7064C35.841 45.5229 35.4512 44.5597 35.497 42.8167Z" fill="#FFB800"/>
<path d="M50.771 30.57C50.771 34.8816 51.0462 38.0235 51.5967 39.9958C52.4223 42.9314 54.257 44.3992 57.1008 44.3992C58.7062 44.3992 60.0134 43.9176 61.0225 42.9543C62.7655 41.2113 63.637 36.9915 63.637 30.2948C63.637 26.1208 63.3618 23.0706 62.8114 21.1441C61.9857 18.1627 60.1052 16.672 57.1696 16.672C55.4266 16.672 54.0735 17.1995 53.1103 18.2545C51.5508 20.0433 50.771 24.1485 50.771 30.57ZM57.5136 14.8832C61.4583 14.8832 64.8296 15.9611 67.6275 18.1169C71.2511 21.0065 73.0629 25.02 73.0629 30.1572C73.0629 34.0101 71.9162 37.4043 69.6228 40.3399C66.5496 44.2386 62.3068 46.188 56.8944 46.188C52.9498 46.188 49.5555 44.9955 46.7117 42.6103C43.134 39.583 41.3452 35.4779 41.3452 30.2948C41.3452 26.6254 42.4001 23.4146 44.5101 20.6625C47.5374 16.8096 51.8719 14.8832 57.5136 14.8832ZM101.065 45.5L100.102 39.0326C99.8727 39.6289 99.5974 40.2023 99.2764 40.7527C97.2123 44.3762 94.0474 46.188 89.7817 46.188C87.2131 46.188 84.8738 45.4083 82.7639 43.8488C79.0486 41.1425 77.191 36.9456 77.191 31.258C77.191 26.6712 78.3835 22.8642 80.7687 19.8369C83.5207 16.4885 87.0755 14.8144 91.433 14.8144C94.6896 14.8144 97.4875 15.8235 99.8268 17.8416V2.56763H93.5658V0.778778H108.565V43.6423H111.73C112.051 43.6423 112.326 43.6653 112.555 43.7112C113.106 43.8488 113.381 44.445 113.381 45.5H101.065ZM86.6168 30.4324C86.6168 32.1754 86.7315 33.7578 86.9608 35.1797C87.7406 40.4087 89.7358 43.0231 92.9466 43.0231C93.9098 43.0231 94.8042 42.7709 95.6299 42.2663C98.5195 40.3857 99.9644 36.0053 99.9644 29.1252C99.9644 27.5656 99.8727 26.0979 99.6892 24.7218C98.9094 19.6305 96.8683 17.0848 93.5658 17.0848C92.6485 17.0848 91.777 17.3142 90.9513 17.7728C88.0617 19.5158 86.6168 23.7357 86.6168 30.4324ZM131.888 16.672C128.219 16.8096 126.224 20.6855 125.903 28.2995L130.306 28.5059C132.141 28.5977 133.517 28.483 134.434 28.1619C135.718 27.6574 136.361 26.3272 136.361 24.1714C136.315 19.2635 134.824 16.7637 131.888 16.672ZM144.754 38.4134C144.479 39.1473 144.112 39.8582 143.654 40.5463C141.314 44.3074 137.461 46.188 132.095 46.188C129.068 46.188 126.361 45.5688 123.976 44.3304C118.977 41.7159 116.477 37.0832 116.477 30.4324C116.477 26.3501 117.578 22.933 119.779 20.1809C122.669 16.6491 126.705 14.8832 131.888 14.8832C134.732 14.8832 137.278 15.3648 139.525 16.328C143.516 18.1169 145.511 20.9607 145.511 24.8594C145.511 25.6392 145.374 26.3501 145.098 26.9923C143.906 29.5609 139.617 30.7305 132.232 30.5012L125.903 30.2948C125.949 32.9551 126.178 35.2485 126.591 37.175C127.646 41.8535 130.008 44.1928 133.677 44.1928C134.824 44.1928 135.948 43.9864 137.049 43.5735C139.801 42.5645 141.819 40.6609 143.103 37.863L144.754 38.4134ZM182.733 34.0101C182.733 37.0374 181.655 39.606 179.499 41.7159C176.38 44.6973 171.908 46.188 166.083 46.188C161.083 46.188 156.818 45.0184 153.286 42.6791C153.286 43.4589 153.24 44.0781 153.148 44.5368C152.919 45.2707 152.185 45.6376 150.947 45.6376V31.0516H153.63C153.813 33.4826 154.318 35.6384 155.143 37.519C157.116 41.9682 160.533 44.1928 165.395 44.1928C166.679 44.1928 167.849 44.0093 168.904 43.6423C171.839 42.5415 173.307 40.3399 173.307 37.0374C173.307 36.0741 173.101 35.1339 172.688 34.2165C171.725 32.29 169.271 30.2948 165.326 28.2307C160.923 25.9832 158.446 24.676 157.896 24.309C153.538 21.6028 151.359 18.3462 151.359 14.5392C151.359 11.9706 152.254 9.74596 154.043 7.86537C156.841 4.97569 161.015 3.53085 166.565 3.53085C170.784 3.53085 174.798 4.42528 178.605 6.21413C178.605 5.80132 178.628 5.43437 178.674 5.1133C178.903 4.24181 179.66 3.80606 180.944 3.80606V16.2592H178.261C178.215 13.7823 177.619 11.6495 176.472 9.86063C174.591 7.01682 171.771 5.59491 168.009 5.59491C167.046 5.59491 166.129 5.73251 165.257 6.00772C162.643 6.87921 161.336 8.66806 161.336 11.3743C161.336 12.4292 161.565 13.4383 162.024 14.4016C162.987 16.3739 165.395 18.3691 169.248 20.3873C173.468 22.6348 175.876 23.9191 176.472 24.2402C180.646 26.9464 182.733 30.203 182.733 34.0101ZM199.59 56.7835H203.098C203.374 56.7835 203.649 56.8064 203.924 56.8523C204.52 56.944 204.818 57.5174 204.818 58.5724H186.93V56.7835C187.526 56.7835 188.077 56.7376 188.581 56.6459C190.095 56.3248 190.852 55.1781 190.852 53.2058V17.704H186.93V15.9152H199.108L199.452 22.5202C199.911 21.2359 200.599 20.0433 201.516 18.9425C203.809 16.2363 206.791 14.8832 210.46 14.8832C212.891 14.8832 215.047 15.5941 216.928 17.016C220.414 19.6305 222.157 23.8503 222.157 29.6756C222.157 34.1706 221.01 37.9318 218.716 40.9591C215.964 44.445 212.318 46.188 207.777 46.188C204.107 46.0963 201.378 45.0413 199.59 43.0231V56.7835ZM206.814 18.1857C205.529 18.1857 204.337 18.7131 203.236 19.7681C200.759 22.1991 199.521 26.2813 199.521 32.0148C199.521 35.088 199.934 37.6795 200.759 39.7894C201.998 42.8167 203.855 44.3304 206.332 44.3304C210.552 44.2845 212.685 39.7436 212.731 30.7076C212.731 22.4514 210.758 18.2774 206.814 18.1857ZM250.778 46.188C247.109 45.9587 244.792 43.8717 243.829 39.927C243.6 40.5692 243.302 41.1884 242.935 41.7847C241.1 44.7202 238.233 46.188 234.334 46.188C233.05 46.188 231.881 46.0275 230.826 45.7064C227.248 44.5597 225.459 41.9452 225.459 37.863C225.505 31.8543 231.422 28.7353 243.21 28.5059V24.0338C243.21 22.7036 243.118 21.5569 242.935 20.5937C242.476 17.9792 241.169 16.672 239.013 16.672C238.371 16.672 237.797 16.7867 237.293 17.016C236.513 17.4747 235.871 18.6214 235.366 20.4561C235.183 21.0983 235.045 21.5569 234.954 21.8322C234.266 23.7586 232.935 24.7218 230.963 24.7218C230.504 24.7218 230.069 24.653 229.656 24.5154C227.959 24.0567 227.11 22.933 227.11 21.1441C227.11 20.3644 227.317 19.6305 227.729 18.9425C229.335 16.2363 233.257 14.8832 239.495 14.8832C241.1 14.8832 242.591 15.0437 243.967 15.3648C249.287 16.6949 251.948 20.2268 251.948 25.9603V40.3399C251.948 42.5415 252.452 43.6882 253.461 43.78C254.792 43.7341 255.594 42.1287 255.869 38.9638L257.658 39.0326C257.521 40.4545 257.314 41.6242 257.039 42.5415C256.213 44.9725 254.126 46.188 250.778 46.188ZM237.912 43.2295C238.233 43.2295 238.6 43.1607 239.013 43.0231C240.939 42.2892 242.338 40.3169 243.21 37.1062V30.4324C241.146 30.5241 239.449 30.7764 238.119 31.1892C235.642 32.1066 234.403 34.0789 234.403 37.1062C234.449 41.0967 235.619 43.1378 237.912 43.2295ZM260.066 30.6388C260.066 26.1437 261.419 22.4743 264.126 19.6305C267.153 16.4656 271.098 14.8832 275.96 14.8832C279.537 14.8832 282.519 15.5941 284.904 17.016C287.335 18.5297 288.55 20.2956 288.55 22.3138C288.55 22.6807 288.504 23.0477 288.413 23.4146C287.862 25.1576 286.417 26.0291 284.078 26.0291C282.977 26.0291 282.106 25.7997 281.464 25.341C280.638 24.7448 280.088 23.3917 279.813 21.2817C279.675 20.4102 279.56 19.791 279.469 19.4241C279.01 17.5435 277.771 16.6032 275.753 16.6032C274.744 16.6032 273.873 16.8096 273.139 17.2224C270.708 18.6902 269.492 23.277 269.492 30.9828C269.492 34.8357 269.882 37.8171 270.662 39.927C271.717 42.7709 273.827 44.1928 276.992 44.1928C278.184 44.1928 279.377 44.0093 280.569 43.6423C283.642 42.6791 285.821 40.8215 287.106 38.0694L288.894 38.551C288.436 39.7436 287.771 40.8444 286.899 41.8535C284.331 44.7432 280.661 46.188 275.891 46.188C272.818 46.188 270.089 45.6147 267.703 44.468C262.612 41.9452 260.066 37.3355 260.066 30.6388ZM306.714 16.672C303.045 16.8096 301.049 20.6855 300.728 28.2995L305.132 28.5059C306.966 28.5977 308.342 28.483 309.26 28.1619C310.544 27.6574 311.186 26.3272 311.186 24.1714C311.14 19.2635 309.65 16.7637 306.714 16.672ZM319.58 38.4134C319.305 39.1473 318.938 39.8582 318.479 40.5463C316.14 44.3074 312.287 46.188 306.92 46.188C303.893 46.188 301.187 45.5688 298.802 44.3304C293.802 41.7159 291.302 37.0832 291.302 30.4324C291.302 26.3501 292.403 22.933 294.605 20.1809C297.495 16.6491 301.531 14.8832 306.714 14.8832C309.558 14.8832 312.104 15.3648 314.351 16.328C318.342 18.1169 320.337 20.9607 320.337 24.8594C320.337 25.6392 320.199 26.3501 319.924 26.9923C318.731 29.5609 314.443 30.7305 307.058 30.5012L300.728 30.2948C300.774 32.9551 301.003 35.2485 301.416 37.175C302.471 41.8535 304.833 44.1928 308.503 44.1928C309.65 44.1928 310.773 43.9864 311.874 43.5735C314.626 42.5645 316.644 40.6609 317.929 37.863L319.58 38.4134Z" fill="white"/>
</svg>
