<svg xmlns="http://www.w3.org/2000/svg" width="21" height="21" viewBox="0 0 21 21" fill="none">
  <path d="M8.38428 10.8993C8.74434 11.3807 9.20371 11.779 9.73124 12.0672C10.2588 12.3554 10.8421 12.5268 11.4417 12.5698C12.0413 12.6127 12.6431 12.5262 13.2063 12.3161C13.7695 12.106 14.281 11.7772 14.706 11.3521L17.2212 8.83683C17.9849 8.04619 18.4074 6.98725 18.3978 5.8881C18.3883 4.78894 17.9474 3.73751 17.1702 2.96026C16.3929 2.18301 15.3415 1.74213 14.2423 1.73258C13.1432 1.72303 12.0842 2.14557 11.2936 2.90919L9.85151 4.34289" stroke="white" stroke-width="1.67684" stroke-linecap="round" stroke-linejoin="round"/>
  <path d="M11.7378 9.22214C11.3778 8.74078 10.9184 8.34248 10.3909 8.05427C9.86335 7.76606 9.28001 7.59467 8.68042 7.55173C8.08083 7.50878 7.47902 7.5953 6.9158 7.80539C6.35258 8.01549 5.84114 8.34425 5.41615 8.76939L2.90089 11.2847C2.13727 12.0753 1.71473 13.1342 1.72428 14.2334C1.73383 15.3325 2.17471 16.384 2.95196 17.1612C3.72921 17.9385 4.78064 18.3793 5.8798 18.3889C6.97895 18.3985 8.03789 17.9759 8.82853 17.2123L10.2622 15.7786" stroke="white" stroke-width="1.67684" stroke-linecap="round" stroke-linejoin="round"/>
</svg>