<svg xmlns="http://www.w3.org/2000/svg" width="26" height="26" viewBox="0 0 26 26" fill="none">
  <path d="M23.2293 3.48556C22.9774 3.27396 22.6726 3.13493 22.3477 3.0834C22.0227 3.03187 21.6899 3.06978 21.3849 3.19306L2.77051 10.6437C2.49916 10.7564 2.26729 10.947 2.10418 11.1914C1.94106 11.4358 1.854 11.723 1.854 12.0168C1.854 12.3106 1.94106 12.5979 2.10418 12.8423C2.26729 13.0866 2.49916 13.2772 2.77051 13.3899L3.97301 13.8856C4.17127 13.9694 4.39472 13.9712 4.59428 13.8905C4.79385 13.8097 4.95321 13.6531 5.03738 13.4549C5.07867 13.3563 5.10008 13.2504 5.10036 13.1435C5.10065 13.0365 5.07981 12.9305 5.03905 12.8316C4.99828 12.7327 4.93839 12.6429 4.86282 12.5672C4.78724 12.4915 4.69746 12.4315 4.59863 12.3906L3.70488 12.0249L21.9943 4.71244C22.0224 4.6952 22.0547 4.68607 22.0877 4.68607C22.1207 4.68607 22.153 4.6952 22.1811 4.71244C22.2076 4.73496 22.2277 4.76416 22.2391 4.79702C22.2505 4.82988 22.253 4.8652 22.2461 4.89931L18.9068 20.4831C18.8958 20.5386 18.8706 20.5902 18.8335 20.633C18.7965 20.6757 18.7489 20.7081 18.6955 20.7268C18.6431 20.7476 18.5861 20.754 18.5304 20.7455C18.4747 20.7369 18.4223 20.7136 18.3786 20.6781L11.8786 15.6081L18.2405 9.18119C18.3764 9.04019 18.4568 8.85485 18.4669 8.65928C18.477 8.46371 18.4162 8.27107 18.2955 8.11681C18.1749 7.96254 18.0026 7.85705 17.8103 7.81973C17.6181 7.7824 17.4189 7.81577 17.2493 7.91369L7.92176 13.4387C7.81816 13.4855 7.72554 13.5536 7.64988 13.6384C7.57423 13.7233 7.51723 13.8231 7.48257 13.9313C7.4479 14.0396 7.43634 14.154 7.44864 14.267C7.46094 14.38 7.49682 14.4892 7.55396 14.5875C7.6111 14.6857 7.68824 14.7709 7.78037 14.8376C7.8725 14.9042 7.97759 14.9507 8.08883 14.9741C8.20008 14.9976 8.31501 14.9974 8.42618 14.9736C8.53736 14.9499 8.64231 14.9031 8.73426 14.8362L12.6586 12.5206L10.7493 14.4624C10.5746 14.6266 10.4384 14.8273 10.3504 15.0502C10.2624 15.2732 10.2249 15.5128 10.2404 15.752C10.2559 15.9912 10.3242 16.224 10.4402 16.4337C10.5563 16.6434 10.7173 16.8248 10.9118 16.9649L17.4118 21.9618C17.7539 22.2258 18.174 22.3687 18.6061 22.3681C18.8362 22.3664 19.0644 22.3252 19.2805 22.2462C19.5909 22.1348 19.8674 21.9455 20.0837 21.6965C20.2999 21.4476 20.4486 21.1472 20.5155 20.8243L23.8305 5.25681C23.9009 4.93481 23.8821 4.59971 23.7761 4.2876C23.6702 3.97549 23.4811 3.69819 23.2293 3.48556Z" fill="white"/>
</svg>