<svg xmlns="http://www.w3.org/2000/svg" width="24" height="24" viewBox="0 0 24 24" fill="none">
  <path d="M7.99995 6.99995V2.99995C7.99436 2.73577 8.04227 2.4732 8.1408 2.22802C8.23933 1.98284 8.38645 1.76013 8.57329 1.57329C8.76013 1.38645 8.98284 1.23933 9.22802 1.1408C9.4732 1.04227 9.73577 0.994361 9.99995 0.99995H18C18.7956 0.99995 19.5587 1.31602 20.1213 1.87863C20.6839 2.44124 21 3.2043 21 3.99995V20C21 20.7956 20.6839 21.5587 20.1213 22.1213C19.5587 22.6839 18.7956 23 18 23H9.99995C9.73577 23.0055 9.4732 22.9576 9.22802 22.8591C8.98284 22.7606 8.76013 22.6135 8.57329 22.4266C8.38645 22.2398 8.23933 22.0171 8.1408 21.7719C8.04227 21.5267 7.99436 21.2641 7.99995 21V17" stroke="#FFE552" stroke-width="2" stroke-linecap="round" stroke-linejoin="round"/>
  <path d="M13 9L16 12L13 15" stroke="#FFE552" stroke-width="2" stroke-linecap="round" stroke-linejoin="round"/>
  <path d="M16 12H3" stroke="#FFE552" stroke-width="2" stroke-linecap="round" stroke-linejoin="round"/>
</svg>