<svg width="151" height="150" viewBox="0 0 151 150" fill="none" xmlns="http://www.w3.org/2000/svg">
<path d="M75.5001 149.487C116.526 149.487 149.987 116.154 149.987 75.0001C149.987 33.8463 116.526 0.512939 75.5001 0.512939C34.4745 0.512939 1.01294 33.9745 1.01294 75.0001C1.01294 116.026 34.4745 149.487 75.5001 149.487ZM75.5001 11.0258C110.757 11.0258 139.474 39.7437 139.474 75.0001C139.474 110.257 110.757 138.974 75.5001 138.974C40.2437 138.974 11.5258 110.257 11.5258 75.0001C11.5258 39.7437 40.2437 11.0258 75.5001 11.0258Z" fill="white"/>
<g clip-path="url(#clip0_1037_2)">
<path d="M126.567 79.1906L115.375 84.764L100.875 57.0328L112.203 51.3687C113.045 50.9396 114.022 50.8607 114.922 51.1493C115.822 51.4379 116.571 52.0706 117.006 52.9093L128.153 74.2515C128.379 74.6787 128.517 75.1469 128.56 75.6283C128.602 76.1098 128.548 76.5949 128.4 77.0551C128.253 77.5153 128.014 77.9413 127.7 78.308C127.385 78.6747 127 78.9748 126.567 79.1906Z" stroke="white" stroke-width="3.625" stroke-linecap="round" stroke-linejoin="round"/>
<path d="M35.625 84.3108L24.4328 78.692C24.0018 78.4808 23.6178 78.1851 23.3034 77.8225C22.989 77.4599 22.7508 77.0378 22.6028 76.5812C22.4549 76.1247 22.4002 75.643 22.4421 75.165C22.4841 74.6869 22.6217 74.2221 22.8468 73.7983L33.9937 52.4561C34.4298 51.618 35.1758 50.9832 36.073 50.6869C36.9701 50.3907 37.9474 50.4565 38.7968 50.8702L50.125 56.5342L35.625 84.3108Z" stroke="white" stroke-width="3.625" stroke-linecap="round" stroke-linejoin="round"/>
<path d="M115.375 84.7642L108.125 93.2829L91.45 109.958C90.9955 110.383 90.4449 110.691 89.8451 110.857C89.2454 111.023 88.6144 111.041 88.0063 110.909L61.725 104.339C61.2449 104.205 60.7976 103.974 60.4109 103.659L35.625 84.311" stroke="white" stroke-width="3.625" stroke-linecap="round" stroke-linejoin="round"/>
<path d="M108.125 93.2827L88.1874 78.7827L82.3874 83.1327C79.8746 85.0082 76.823 86.0215 73.6874 86.0215C70.5519 86.0215 67.5002 85.0082 64.9874 83.1327L62.5405 81.2749C62.1268 80.9604 61.7845 80.5615 61.5365 80.1047C61.2884 79.648 61.1402 79.1437 61.1017 78.6254C61.0631 78.107 61.1351 77.5864 61.3128 77.098C61.4906 76.6095 61.77 76.1644 62.1327 75.7921L79.8952 58.0749C80.2289 57.7429 80.6248 57.48 81.0602 57.3011C81.4956 57.1223 81.962 57.0311 82.4327 57.0327H100.875" stroke="white" stroke-width="3.625" stroke-linecap="round" stroke-linejoin="round"/>
<path d="M50.397 56.5343L73.6423 49.7374C74.4682 49.5005 75.3515 49.5648 76.1345 49.9186L91.8126 57.0327" stroke="white" stroke-width="3.625" stroke-linecap="round" stroke-linejoin="round"/>
</g>
<defs>
<clipPath id="clip0_1037_2">
<rect width="116" height="116" fill="white" transform="translate(17.5 24)"/>
</clipPath>
</defs>
</svg>
