<svg xmlns="http://www.w3.org/2000/svg" width="20" height="20" viewBox="0 0 20 20" fill="none">
  <g clip-path="url(#clip0_820_57)">
    <path d="M20 1.66667V2.5H17.4017L14.6808 1.13917C13.6142 0.606667 12.2617 0.806667 11.3975 1.62167L7.07417 5.71917C6.6175 6.17583 6.53083 6.89333 6.88083 7.38C7.10333 7.68833 7.43 7.875 7.80167 7.90417C8.17 7.9325 8.5275 7.80167 8.7875 7.5425L12.6608 3.81167L13.2383 4.4125L11.4817 6.10417L13.4708 7.59583C13.1083 7.65333 12.7533 7.7325 12.4108 7.8425L10.8733 6.68917L9.37 8.13667C8.9825 8.52417 8.45417 8.74167 7.90333 8.74167C7.8475 8.74167 7.79083 8.73917 7.73417 8.735C7.12417 8.68583 6.56667 8.36917 6.20417 7.86667C5.61833 7.0525 5.7425 5.8725 6.4925 5.1225L9.425 2.3425L8.59833 1.59C7.71083 0.78 6.32583 0.636667 5.3175 1.14L2.59667 2.50083H0V1.6675H2.40167L4.94667 0.394167C5.46333 0.136667 6.04 0 6.61583 0C7.57917 0 8.47167 0.345833 9.16083 0.973333L10.0325 1.7675L10.825 1.01667C11.94 -0.0333333 13.6817 -0.29 15.0533 0.394167L17.5992 1.66667H20ZM20 14.5833C20 17.57 17.57 20 14.5833 20C11.5967 20 9.16667 17.57 9.16667 14.5833C9.16667 11.5967 11.5967 9.16667 14.5833 9.16667C17.57 9.16667 20 11.5967 20 14.5833ZM19.1667 14.5833C19.1667 12.0567 17.1108 10 14.5833 10C12.0558 10 10 12.0567 10 14.5833C10 17.11 12.0558 19.1667 14.5833 19.1667C17.1108 19.1667 19.1667 17.11 19.1667 14.5833ZM14.15 15.7925C14.1042 15.84 14 15.84 13.9492 15.7875L12.4025 14.2875L11.8225 14.8867L13.365 16.3817C13.5492 16.5658 13.7933 16.6667 14.0525 16.6667C14.3117 16.6667 14.5558 16.5658 14.7375 16.3842L17.6183 13.5517L17.0342 12.9575L14.1508 15.7925H14.15ZM7.505 14.4867L2.63917 10.8333H0V11.6667H2.36083L7.57833 15.5842C7.53167 15.2567 7.5 14.9242 7.5 14.5833C7.5 14.5508 7.50417 14.5192 7.505 14.4867Z" fill="#FFBB00"/>
  </g>
  <defs>
    <clipPath id="clip0_820_57">
      <rect width="20" height="20" fill="white"/>
    </clipPath>
  </defs>
</svg>