<svg width="150" height="150" viewBox="0 0 150 150" fill="none" xmlns="http://www.w3.org/2000/svg">
<g clip-path="url(#clip0_920_135)">
<path d="M75.0001 149.487C116.026 149.487 149.487 116.154 149.487 75.0001C149.487 33.8463 116.026 0.512939 75.0001 0.512939C33.9745 0.512939 0.512939 33.9745 0.512939 75.0001C0.512939 116.026 33.9745 149.487 75.0001 149.487ZM75.0001 11.0258C110.257 11.0258 138.974 39.7437 138.974 75.0001C138.974 110.257 110.257 138.974 75.0001 138.974C39.7437 138.974 11.0258 110.257 11.0258 75.0001C11.0258 39.7437 39.7437 11.0258 75.0001 11.0258Z" fill="white"/>
<path d="M47.0514 102.18C48.077 103.205 49.3591 103.718 50.7693 103.718C52.1796 103.718 53.4617 103.205 54.4873 102.18L75.0001 81.6667L95.5129 102.18C96.5386 103.205 97.8206 103.718 99.2309 103.718C100.641 103.718 101.923 103.205 102.949 102.18C105 100.128 105 96.7949 102.949 94.7437L82.436 74.2308L102.949 53.718C105 51.6667 105 48.3334 102.949 46.2821C100.898 44.2308 97.5642 44.2308 95.5129 46.2821L75.0001 66.7949L54.4873 46.2821C52.436 44.2308 49.1027 44.2308 47.0514 46.2821C45.0001 48.3334 45.0001 51.6667 47.0514 53.718L67.5642 74.2308L47.0514 94.7437C45.0001 96.7949 45.0001 100.128 47.0514 102.18Z" fill="#FF4A4A"/>
</g>
<defs>
<clipPath id="clip0_920_135">
<rect width="150" height="150" fill="white"/>
</clipPath>
</defs>
</svg>
