<svg width="68" height="68" viewBox="0 0 68 68" fill="none" xmlns="http://www.w3.org/2000/svg">
<g clip-path="url(#clip0_1395_125)">
<path d="M34 0C32.2336 0 30.8125 1.42109 30.8125 3.1875V13.8125C30.8125 15.5789 32.2336 17 34 17C35.7664 17 37.1875 15.5789 37.1875 13.8125V6.56094C50.9469 8.14141 61.625 19.8156 61.625 34C61.625 49.2602 49.2602 61.625 34 61.625C18.7398 61.625 6.375 49.2602 6.375 34C6.375 28.2492 8.12813 22.9102 11.1297 18.4875C12.1258 17.0266 11.7406 15.0477 10.2797 14.0648C8.81875 13.082 6.83984 13.4539 5.85703 14.9148C2.16484 20.3469 0 26.9211 0 34C0 52.7797 15.2203 68 34 68C52.7797 68 68 52.7797 68 34C68 15.2203 52.7797 0 34 0ZM25.6328 21.1172C24.3844 19.8688 22.3656 19.8688 21.1305 21.1172C19.8953 22.3656 19.882 24.3844 21.1305 25.6195L31.7555 36.2445C33.0039 37.493 35.0227 37.493 36.2578 36.2445C37.493 34.9961 37.5062 32.9773 36.2578 31.7422L25.6328 21.1172Z" fill="#FFCF31"/>
</g>
<defs>
<clipPath id="clip0_1395_125">
<rect width="68" height="68" fill="white"/>
</clipPath>
</defs>
</svg>
