<svg width="24" height="24" viewBox="0 0 24 24" fill="none" xmlns="http://www.w3.org/2000/svg">
<path fill-rule="evenodd" clip-rule="evenodd" d="M12 3.50005C7.30558 3.50005 3.5 7.30563 3.5 12C3.5 16.6945 7.30558 20.5 12 20.5C16.6944 20.5 20.5 16.6945 20.5 12C20.5 7.30563 16.6944 3.50005 12 3.50005ZM2.5 12C2.5 6.75334 6.75329 2.50005 12 2.50005C17.2467 2.50005 21.5 6.75334 21.5 12C21.5 17.2468 17.2467 21.5 12 21.5C6.75329 21.5 2.5 17.2468 2.5 12Z" fill="white"/>
<path fill-rule="evenodd" clip-rule="evenodd" d="M12 6.25005C12.2761 6.25005 12.5 6.4739 12.5 6.75005V11.5H17.25C17.5261 11.5 17.75 11.7239 17.75 12C17.75 12.2762 17.5261 12.5 17.25 12.5H12C11.7239 12.5 11.5 12.2762 11.5 12V6.75005C11.5 6.4739 11.7239 6.25005 12 6.25005Z" fill="white"/>
</svg>
