<svg width="151" height="150" viewBox="0 0 151 150" fill="none" xmlns="http://www.w3.org/2000/svg">
<path d="M44.7309 70.6414C42.6797 68.5902 39.3463 68.5902 37.2951 70.6414C35.2438 72.6927 35.2438 76.0261 37.2951 78.0773L61.5258 102.308C62.5515 103.334 63.8335 103.847 65.2438 103.847C65.372 103.847 65.372 103.847 65.5002 103.847C66.9104 103.718 68.3207 103.077 69.3463 101.923L129.987 29.2312C131.782 27.0517 131.526 23.7184 129.346 21.7953C127.167 20.0004 123.834 20.2568 121.91 22.4363L64.8592 90.7697L44.7309 70.6414Z" fill="#51FF4C"/>
<path d="M114.731 11.923C85.2436 -6.5385 47.4231 -2.17952 22.8077 22.4359C-6.16668 51.4102 -6.16668 98.7179 22.8077 127.692C37.2949 142.179 56.3974 149.487 75.3718 149.487C94.3461 149.487 113.449 142.179 127.936 127.692C152.679 102.949 156.91 65 138.32 35.5128C136.782 33.0769 133.577 32.3077 131.141 33.8461C128.705 35.3846 127.936 38.5897 129.474 41.0256C145.5 66.4102 141.782 98.9743 120.5 120.256C95.6282 145.128 54.9872 145.128 30.1154 120.256C5.24357 95.3846 5.24357 54.7435 30.1154 29.8718C51.3974 8.71791 83.8333 4.99996 109.218 20.7692C111.654 22.3077 114.859 21.5384 116.397 19.1025C117.936 16.6666 117.167 13.4615 114.731 11.923Z" fill="white"/>
</svg>
