<svg width="130" height="25" viewBox="0 0 130 25" fill="none" xmlns="http://www.w3.org/2000/svg">
<g clip-path="url(#clip0_883_45)">
<mask id="mask0_883_45" style="mask-type:luminance" maskUnits="userSpaceOnUse" x="0" y="0" width="21" height="25">
<path d="M20.7692 0H0V24.5455H20.7692V0Z" fill="white"/>
</mask>
<g mask="url(#mask0_883_45)">
<path d="M17.6916 20.3538C17.6916 19.9636 17.5342 19.5986 17.2196 19.2587C16.9175 18.9188 16.5398 18.6104 16.0867 18.3335C15.6335 18.044 15.0041 17.6852 14.1986 17.2573C13.2545 16.7538 12.493 16.3196 11.914 15.9545C11.335 15.5769 10.8377 15.1426 10.4224 14.6517C10.0195 14.1482 9.81816 13.5944 9.81816 12.9902C9.81816 12.3608 10.0888 11.6874 10.63 10.9699C11.1839 10.2399 11.8573 9.62933 12.6503 9.13843C13.4433 8.63494 14.1734 8.38318 14.8405 8.38318C15.6461 8.38318 16.5839 8.47759 17.6538 8.6664C18.7364 8.85522 19.5231 9.0566 20.014 9.27059V13.1223H18.8811C18.3021 12.1028 17.6601 11.3098 16.9552 10.7433C16.2629 10.1769 15.5328 9.89367 14.765 9.89367C14.1231 9.89367 13.6196 10.095 13.2545 10.4979C12.8895 10.888 12.707 11.3978 12.707 12.0272C12.707 12.4426 12.8643 12.8328 13.179 13.1979C13.4937 13.5503 13.8839 13.8713 14.3496 14.1608C14.828 14.4503 15.4699 14.8028 16.2755 15.2181C17.1944 15.6965 17.9434 16.1181 18.5224 16.4832C19.1013 16.8482 19.586 17.2762 19.9762 17.7671C20.379 18.258 20.5804 18.7992 20.5804 19.3909C20.5804 20.0203 20.2846 20.7 19.693 21.43C19.114 22.1475 18.4027 22.758 17.5594 23.2615C16.7161 23.7524 15.9482 23.9979 15.2559 23.9979C14.4126 23.9979 13.4056 23.9035 12.2349 23.7146C11.0769 23.5258 10.2399 23.3245 9.72375 23.1105V19.2587H10.8755C11.4797 20.2783 12.172 21.0713 12.9524 21.6377C13.7329 22.2042 14.5321 22.4874 15.3503 22.4874C16.0553 22.4874 16.6217 22.2797 17.0496 21.8643C17.4776 21.4364 17.6916 20.9328 17.6916 20.3538Z" fill="white"/>
<path d="M8.59083 0.830811C9.28314 0.830811 10.0888 0.925216 11.0076 1.11403C11.9265 1.30284 12.5936 1.50424 13.009 1.71823V5.51333H11.8761C10.7685 3.60004 9.30831 2.6434 7.49573 2.6434C6.7153 2.6434 6.00412 2.87627 5.36216 3.342C4.73279 3.80774 4.22929 4.45599 3.85167 5.28676C3.48663 6.10494 3.30412 7.03012 3.30412 8.06228C3.30412 9.23291 3.48663 10.3028 3.85167 11.2721C4.21671 12.2413 4.77055 13.0217 5.51321 13.6133C6.25587 14.1923 7.17475 14.4819 8.26985 14.4819C9.35237 14.4819 10.9258 13.7455 12.9901 12.2728L13.6321 13.3112L10.158 16.0112C9.6545 16.1748 9.16985 16.2819 8.70412 16.3322C8.23839 16.3952 7.74118 16.4266 7.21251 16.4266C5.85307 16.4266 4.64468 16.1056 3.58733 15.4637C2.54258 14.8217 1.73069 13.9406 1.15167 12.8203C0.572653 11.6874 0.283142 10.4035 0.283142 8.96858C0.283142 7.49585 0.717408 6.13641 1.58594 4.89026C2.46705 3.63152 3.55587 2.6434 4.85237 1.92592C6.16146 1.19585 7.40762 0.830811 8.59083 0.830811Z" fill="#FFB800"/>
</g>
</g>
<path d="M33.3083 17.4543C31.3903 17.4543 29.9138 17.0227 28.8786 16.1594C27.8474 15.2922 27.3317 14.0793 27.3317 12.5208C27.3317 10.9153 27.8278 9.677 28.82 8.80591C29.8161 7.93091 31.2888 7.49341 33.238 7.49341C34.3083 7.49341 35.2595 7.64575 36.0915 7.95044C36.9235 8.25513 37.5876 8.70239 38.0837 9.29224C38.5798 9.88208 38.8532 10.5774 38.904 11.3782H36.3669C36.2536 10.8079 35.9157 10.3606 35.3532 10.0364C34.7946 9.70825 34.0895 9.54419 33.238 9.54419C32.1325 9.54419 31.3044 9.80396 30.7536 10.3235C30.2028 10.8391 29.9274 11.5715 29.9274 12.5208C29.9274 13.427 30.2224 14.134 30.8122 14.6418C31.402 15.1497 32.2341 15.4036 33.3083 15.4036C34.2106 15.4036 34.9235 15.2395 35.447 14.9114C35.9704 14.5833 36.2849 14.1223 36.3903 13.5286H38.9157C38.8063 14.759 38.2536 15.7219 37.2575 16.4172C36.2614 17.1086 34.945 17.4543 33.3083 17.4543ZM81.1149 11.8118C82.0056 11.9641 82.697 12.2532 83.1891 12.679C83.6852 13.1008 83.9313 13.636 83.9274 14.2844C83.9274 14.9094 83.7126 15.4641 83.2829 15.9485C82.8532 16.429 82.2556 16.8 81.4899 17.0618C80.7243 17.3235 79.8552 17.4543 78.8825 17.4543C77.8825 17.4543 76.9899 17.3157 76.2048 17.0383C75.4196 16.761 74.8005 16.3704 74.3474 15.8665C73.8942 15.3586 73.6462 14.7747 73.6032 14.1145H76.3747C76.4958 14.509 76.7927 14.8293 77.2653 15.0754C77.7419 15.3176 78.3063 15.4387 78.9587 15.4387C79.6032 15.4387 80.1052 15.3333 80.4645 15.1223C80.8278 14.9114 81.0095 14.6282 81.0095 14.2727C81.0016 14.0305 80.9177 13.8254 80.7575 13.6575C80.6013 13.4895 80.3766 13.3821 80.0837 13.3352L76.5095 12.7727C75.7165 12.675 75.0778 12.4075 74.5934 11.97C74.1091 11.5286 73.8669 10.9954 73.8669 10.3704C73.8669 9.80396 74.0759 9.30396 74.4938 8.87036C74.9118 8.43286 75.5036 8.09497 76.2692 7.85669C77.0349 7.61841 77.9157 7.49731 78.9118 7.49341C80.3024 7.4856 81.4509 7.78638 82.3571 8.39575C83.2634 9.00122 83.7653 9.80396 83.863 10.804H81.1032C81.0173 10.4329 80.7575 10.1301 80.3239 9.89575C79.8903 9.65747 79.3708 9.52856 78.7653 9.50903C78.1755 9.4895 77.6989 9.56372 77.3356 9.73169C76.9763 9.89966 76.7966 10.1301 76.7966 10.4231C76.7966 10.634 76.8688 10.8118 77.0134 10.9563C77.1618 11.0969 77.3571 11.1829 77.5993 11.2141L81.1149 11.8118Z" fill="#00E5FF"/>
<path d="M45.1208 17.4426C43.363 17.4426 41.9958 17.0813 41.0192 16.3586C40.0427 15.636 39.5544 14.636 39.5544 13.3586C39.5544 12.054 40.0427 11.0325 41.0192 10.2942C41.9958 9.55591 43.363 9.18677 45.1208 9.18677C46.8825 9.18677 48.2536 9.55591 49.2341 10.2942C50.2184 11.0325 50.7106 12.054 50.7106 13.3586C50.7106 14.636 50.2184 15.636 49.2341 16.3586C48.2536 17.0813 46.8825 17.4426 45.1208 17.4426ZM45.1208 15.5325C46.0036 15.5325 46.6872 15.3411 47.1716 14.9583C47.6599 14.5715 47.904 14.0383 47.904 13.3586C47.904 12.6477 47.6599 12.093 47.1716 11.6946C46.6872 11.2922 46.0036 11.0911 45.1208 11.0911C44.2419 11.0911 43.5622 11.2922 43.0817 11.6946C42.6013 12.093 42.361 12.6477 42.361 13.3586C42.361 14.0383 42.6013 14.5715 43.0817 14.9583C43.5661 15.3411 44.2458 15.5325 45.1208 15.5325ZM59.1891 7.67505H61.8727V17.2727H59.0778V15.4973L59.2009 15.0286L59.1013 14.9348C58.7653 15.7473 58.2966 16.3704 57.695 16.804C57.0974 17.2375 56.3747 17.4543 55.527 17.4543C54.7263 17.4543 54.0231 17.2922 53.4177 16.968C52.8122 16.6399 52.3395 16.1633 51.9997 15.5383C51.6599 14.9094 51.488 14.1672 51.4841 13.3118V13.3V13.2883C51.488 12.4407 51.6599 11.7063 51.9997 11.0852C52.3395 10.4641 52.8122 9.99341 53.4177 9.6731C54.0231 9.34888 54.7263 9.18677 55.527 9.18677C57.2341 9.18677 58.445 9.96997 59.1599 11.5364L59.2595 11.5012L59.1891 11.1145V7.67505ZM56.6286 15.5676C57.2106 15.5676 57.7165 15.4524 58.1462 15.2219C58.5759 14.9915 58.8864 14.6672 59.0778 14.2493V12.3625C58.8864 11.9407 58.5778 11.6184 58.152 11.3958C57.7263 11.1692 57.2184 11.0559 56.6286 11.0559C55.9099 11.0559 55.3415 11.2512 54.9235 11.6418C54.5095 12.0286 54.3024 12.5774 54.3024 13.2883V13.3V13.3118C54.3024 14.0149 54.5114 14.5676 54.9294 14.97C55.3474 15.3684 55.9138 15.5676 56.6286 15.5676ZM68.2712 17.4192C66.5485 17.4192 65.2243 17.0637 64.2985 16.3528C63.3727 15.6379 62.9099 14.6399 62.9099 13.3586C62.9099 10.5696 64.6813 9.17505 68.2243 9.17505C69.6579 9.17505 70.8161 9.49146 71.6989 10.1243C72.5856 10.7532 73.0466 11.6086 73.0817 12.6907C73.0778 12.7766 73.0739 12.9036 73.07 13.0715C73.0661 13.2395 73.0622 13.3645 73.0583 13.4465H65.7282C65.7282 13.4622 65.7302 13.4856 65.7341 13.5168C65.738 13.5481 65.7399 13.5715 65.7399 13.5872C65.7985 14.2825 66.027 14.7786 66.4255 15.0754C66.8278 15.3723 67.4274 15.5208 68.2243 15.5208C69.6227 15.5208 70.3903 15.0559 70.527 14.1262H73.07C72.945 15.1614 72.4626 15.97 71.6227 16.552C70.7868 17.1301 69.6696 17.4192 68.2712 17.4192ZM70.5153 12.7258L70.5739 12.6907V12.6379C70.5075 12.1262 70.2497 11.7317 69.8005 11.4543C69.3552 11.1731 68.8024 11.0325 68.1423 11.0325C67.3571 11.0325 66.777 11.175 66.402 11.4602C66.0309 11.7415 65.8102 12.1516 65.7399 12.6907H69.9177L70.5153 12.7258ZM95.4118 13.3235V13.3352C95.4079 14.1829 95.236 14.9192 94.8962 15.5442C94.5563 16.1653 94.0837 16.6379 93.4782 16.9622C92.8727 17.2825 92.1696 17.4426 91.3688 17.4426C89.6618 17.4426 88.4489 16.6575 87.7302 15.0872L87.6364 15.1223L87.7067 15.509V19.1946H85.0173V9.35083H87.8122V11.1262L87.695 11.595L87.7888 11.6946C88.1247 10.8821 88.5934 10.259 89.195 9.82544C89.7966 9.39185 90.5212 9.17505 91.3688 9.17505C91.9665 9.17505 92.5134 9.27075 93.0095 9.46216C93.5095 9.64966 93.9352 9.91919 94.2868 10.2708C94.6423 10.6184 94.9177 11.052 95.113 11.5715C95.3083 12.0911 95.4079 12.6711 95.4118 13.3118V13.3235ZM90.2614 15.5676C90.9802 15.5676 91.5466 15.3743 91.9606 14.9875C92.3786 14.5969 92.5876 14.0461 92.5876 13.3352V13.3235V13.3118C92.5876 12.6086 92.3786 12.0579 91.9606 11.6594C91.5427 11.2571 90.9763 11.0559 90.2614 11.0559C89.6794 11.0559 89.1735 11.1711 88.7438 11.4016C88.3141 11.6321 88.0036 11.9563 87.8122 12.3743V14.261C88.0036 14.6829 88.3122 15.0071 88.738 15.2336C89.1638 15.4563 89.6716 15.5676 90.2614 15.5676ZM100.281 17.4426C99.4802 17.4426 98.777 17.2805 98.1716 16.9563C97.5661 16.6321 97.0934 16.1575 96.7536 15.5325C96.4138 14.9075 96.2419 14.1672 96.238 13.3118C96.2419 12.6711 96.3415 12.0911 96.5368 11.5715C96.7321 11.052 97.0056 10.6184 97.3571 10.2708C97.7126 9.91919 98.1384 9.64966 98.6345 9.46216C99.1345 9.27075 99.6833 9.17505 100.281 9.17505C101.937 9.17505 103.105 10.0149 103.785 11.6946L103.879 11.595L103.761 11.1262V9.35083H106.556V17.2727H103.867V15.509L103.879 15.304L103.773 15.2454C103.07 16.7102 101.906 17.4426 100.281 17.4426ZM101.383 15.5676C101.961 15.5676 102.455 15.4563 102.865 15.2336C103.279 15.011 103.578 14.6907 103.761 14.2727V12.3625C103.574 11.9485 103.275 11.6282 102.865 11.4016C102.455 11.1711 101.961 11.0559 101.383 11.0559C100.668 11.0559 100.101 11.2571 99.6833 11.6594C99.2653 12.0579 99.0563 12.6086 99.0563 13.3118C99.0563 14.0266 99.2595 14.5813 99.6657 14.9758C100.076 15.3704 100.648 15.5676 101.383 15.5676ZM115.591 13.9504H118.088C117.998 15.0559 117.513 15.9114 116.634 16.5168C115.756 17.1184 114.564 17.4192 113.06 17.4192C111.373 17.4192 110.06 17.0618 109.123 16.3469C108.189 15.6321 107.722 14.636 107.722 13.3586C107.722 12.0422 108.191 11.0188 109.129 10.2883C110.07 9.55396 111.392 9.18677 113.095 9.18677C114.65 9.18677 115.867 9.47974 116.746 10.0657C117.629 10.6516 118.088 11.4778 118.123 12.5442H115.58C115.357 11.5676 114.529 11.0793 113.095 11.0793C112.291 11.0793 111.668 11.2805 111.226 11.6829C110.785 12.0813 110.564 12.6399 110.564 13.3586C110.564 14.0383 110.775 14.5696 111.197 14.9524C111.619 15.3313 112.213 15.5208 112.978 15.5208C114.439 15.5208 115.31 14.9973 115.591 13.9504ZM124.017 17.4192C122.295 17.4192 120.97 17.0637 120.045 16.3528C119.119 15.6379 118.656 14.6399 118.656 13.3586C118.656 10.5696 120.427 9.17505 123.97 9.17505C125.404 9.17505 126.562 9.49146 127.445 10.1243C128.332 10.7532 128.793 11.6086 128.828 12.6907C128.824 12.7766 128.82 12.9036 128.816 13.0715C128.812 13.2395 128.808 13.3645 128.804 13.4465H121.474C121.474 13.4622 121.476 13.4856 121.48 13.5168C121.484 13.5481 121.486 13.5715 121.486 13.5872C121.545 14.2825 121.773 14.7786 122.172 15.0754C122.574 15.3723 123.174 15.5208 123.97 15.5208C125.369 15.5208 126.136 15.0559 126.273 14.1262H128.816C128.691 15.1614 128.209 15.97 127.369 16.552C126.533 17.1301 125.416 17.4192 124.017 17.4192ZM126.261 12.7258L126.32 12.6907V12.6379C126.254 12.1262 125.996 11.7317 125.547 11.4543C125.101 11.1731 124.549 11.0325 123.888 11.0325C123.103 11.0325 122.523 11.175 122.148 11.4602C121.777 11.7415 121.556 12.1516 121.486 12.6907H125.664L126.261 12.7258Z" fill="white"/>
<defs>
<clipPath id="clip0_883_45">
<rect width="20.7692" height="24.5455" fill="white"/>
</clipPath>
</defs>
</svg>
