<svg xmlns="http://www.w3.org/2000/svg" width="30" height="30" viewBox="0 0 30 30" fill="none">
  <g clip-path="url(#clip0_681_281)">
    <path d="M15 30C23.2648 29.9532 29.9532 23.2648 30 15C29.9555 6.73424 23.2658 0.0445098 15 0C6.7323 0.0398676 0.0398676 6.7323 0 15C0.0468272 23.2648 6.7352 29.9532 15 30ZM14.6421 17.8757C13.5707 17.8757 12.9771 17.4021 12.9771 16.47V16.3414C13.0534 15.1682 13.7481 14.1242 14.8007 13.6007C16.035 12.7436 16.6521 12.2657 16.6521 11.4193C16.6504 10.9851 16.4606 10.573 16.1318 10.2895C15.8031 10.0059 15.3676 9.87869 14.9379 9.94071C14.1846 9.95505 13.4934 10.3612 13.1143 11.0121C12.6857 11.4707 12.4114 11.9314 11.52 11.9314C11.1496 11.9667 10.7812 11.846 10.5034 11.5983C10.2257 11.3507 10.0637 10.9985 10.0564 10.6264C10.0607 10.341 10.1189 10.0589 10.2279 9.795C11.1681 8.01232 13.1073 6.9908 15.1093 7.22357C17.895 7.22357 20.1771 8.72357 20.1771 11.2414C20.1771 12.9343 19.2879 13.7807 17.7793 14.7557C16.875 15.345 16.3007 15.8464 16.215 16.5643C16.203 16.6206 16.1979 16.6782 16.2 16.7357C16.0471 17.4571 15.3732 17.9458 14.64 17.8671L14.6421 17.8757ZM14.6143 22.59C14.1288 22.6216 13.6513 22.4546 13.2913 22.1274C12.9313 21.8001 12.7197 21.3406 12.705 20.8543C12.7173 20.3671 12.9281 19.9062 13.2887 19.5784C13.6493 19.2506 14.1282 19.0845 14.6143 19.1186C15.0993 19.0831 15.5774 19.2492 15.9359 19.5777C16.2944 19.9062 16.5016 20.3681 16.5086 20.8543C16.5011 21.3405 16.2933 21.8021 15.9344 22.1303C15.5755 22.4584 15.0971 22.6239 14.6121 22.5879L14.6143 22.59Z" fill="#898989"/>
  </g>
  <defs>
    <clipPath id="clip0_681_281">
      <rect width="30" height="30" fill="white"/>
    </clipPath>
  </defs>
</svg>