<svg xmlns="http://www.w3.org/2000/svg" width="56" height="55" viewBox="0 0 56 55" fill="none">
  <path d="M45.8905 6.73641C41.4455 2.85141 35.7022 0.370781 29.1397 0V6.59203C34.6085 6.93984 37.8306 8.67672 41.066 11.387L45.8905 6.73641Z" fill="white"/>
  <path d="M48.9869 25.3509H55.5713C55.1294 18.7884 52.5624 13.3962 48.5767 8.97748L43.9185 13.6073C46.725 16.8229 48.5713 20.9759 48.9869 25.3509Z" fill="white"/>
  <path d="M49.0175 28.6321C48.3208 39.5696 39.2591 48.2442 28.1903 48.2442C16.6677 48.2442 6.94861 38.8992 6.94861 27.3776C6.94861 16.4095 16.0147 7.43526 25.8585 6.59307V0.0010376C11.6397 0.853069 0.386108 12.8165 0.386108 27.406C0.386108 42.5468 12.8767 54.8067 28.0175 54.8067C42.7088 54.8067 54.9128 42.8509 55.6139 28.6321H49.0175Z" fill="white"/>
  <path d="M21.1002 24.1244L19.1724 25.5419L17.9061 23.633L21.705 20.8925H23.5761V33.8201H21.1002V24.1244ZM31.5644 34.1225C30.4808 34.1225 29.5295 33.8327 28.7105 33.2531C27.8915 32.6609 27.2552 31.8545 26.8016 30.8339C26.3606 29.8007 26.1401 28.6415 26.1401 27.3563C26.1401 26.0711 26.3606 24.9182 26.8016 23.8976C27.2552 22.8644 27.8915 22.058 28.7105 21.4784C29.5295 20.8862 30.4808 20.5901 31.5644 20.5901C32.648 20.5901 33.5993 20.8862 34.4183 21.4784C35.2373 22.058 35.8673 22.8644 36.3083 23.8976C36.7619 24.9182 36.9887 26.0711 36.9887 27.3563C36.9887 28.6289 36.7619 29.7818 36.3083 30.815C35.8673 31.8482 35.2373 32.6609 34.4183 33.2531C33.5993 33.8327 32.648 34.1225 31.5644 34.1225ZM31.5644 31.7978C32.1566 31.7978 32.6732 31.6088 33.1142 31.2308C33.5678 30.8402 33.908 30.311 34.1348 29.6432C34.3742 28.9628 34.4939 28.2005 34.4939 27.3563C34.4939 26.0585 34.2293 24.9938 33.7001 24.1622C33.1709 23.3306 32.459 22.9148 31.5644 22.9148C30.6572 22.9148 29.939 23.3306 29.4098 24.1622C28.8806 24.9812 28.616 26.0459 28.616 27.3563C28.616 28.2005 28.7294 28.9628 28.9562 29.6432C29.1956 30.311 29.5358 30.8402 29.9768 31.2308C30.4304 31.6088 30.9596 31.7978 31.5644 31.7978Z" fill="white"/>
</svg>