<svg xmlns="http://www.w3.org/2000/svg" width="56" height="55" viewBox="0 0 56 55" fill="none">
  <path d="M45.8905 6.73641C41.4455 2.85141 35.7022 0.370781 29.1397 0V6.59203C34.6084 6.93984 37.8306 8.67672 41.0659 11.387L45.8905 6.73641Z" fill="white"/>
  <path d="M48.9869 25.3509H55.5712C55.1294 18.7884 52.5623 13.3962 48.5767 8.97748L43.9184 13.6073C46.725 16.8229 48.5712 20.9759 48.9869 25.3509Z" fill="white"/>
  <path d="M49.0175 28.6321C48.3208 39.5696 39.2591 48.2442 28.1903 48.2442C16.6677 48.2442 6.94859 38.8992 6.94859 27.3776C6.94859 16.4095 16.0147 7.43526 25.8584 6.59307V0.0010376C11.6397 0.853069 0.386093 12.8165 0.386093 27.406C0.386093 42.5468 12.8767 54.8067 28.0175 54.8067C42.7088 54.8067 54.9128 42.8509 55.6139 28.6321H49.0175Z" fill="white"/>
  <path d="M27.773 34.1394C26.7272 34.1394 25.7696 33.8433 24.9002 33.2511C24.0308 32.6463 23.4575 31.7769 23.1803 30.6429L25.4294 29.7735C25.5806 30.4161 25.8515 30.9264 26.2421 31.3044C26.6453 31.6698 27.1493 31.8525 27.7541 31.8525C28.3589 31.8525 28.8629 31.6509 29.2661 31.2477C29.6819 30.8445 29.8898 30.3342 29.8898 29.7168C29.8898 29.112 29.6882 28.608 29.285 28.2048C28.8818 27.789 28.3715 27.5811 27.7541 27.5811C27.3761 27.5811 27.0296 27.663 26.7146 27.8268C26.4122 27.978 26.1539 28.1859 25.9397 28.4505L23.5394 27.3732L24.2954 20.9094H31.5719V23.0829H26.3555L25.8641 26.1069L26.0153 26.1447C26.6453 25.6281 27.395 25.3698 28.2644 25.3698C28.9826 25.3698 29.6567 25.5525 30.2867 25.9179C30.9167 26.2833 31.4207 26.7999 31.7987 27.4677C32.1767 28.1229 32.3657 28.8726 32.3657 29.7168C32.3657 30.5736 32.1641 31.3359 31.7609 32.0037C31.3703 32.6715 30.8285 33.1944 30.1355 33.5724C29.4425 33.9504 28.655 34.1394 27.773 34.1394Z" fill="white"/>
</svg>